<svg width="161" height="178" viewBox="0 0 161 178" fill="none" xmlns="http://www.w3.org/2000/svg">
<path d="M71.7046 90.5432C79.1755 90.5432 85.2319 83.8474 85.2319 75.5876C85.2319 67.3279 79.1755 60.6321 71.7046 60.6321C64.2338 60.6321 58.1774 67.3279 58.1774 75.5876C58.1774 83.8474 64.2338 90.5432 71.7046 90.5432Z" fill="#75DDF9"/>
<path d="M71.7046 80.6697C74.2432 80.6697 76.3012 78.3944 76.3012 75.5878C76.3012 72.7811 74.2432 70.5059 71.7046 70.5059C69.166 70.5059 67.1081 72.7811 67.1081 75.5878C67.1081 78.3944 69.166 80.6697 71.7046 80.6697Z" fill="white"/>
<path d="M113.862 82.9588C117.545 82.9588 120.529 79.6587 120.529 75.5878C120.529 71.5169 117.545 68.2168 113.862 68.2168C110.18 68.2168 107.195 71.5169 107.195 75.5878C107.195 79.6587 110.18 82.9588 113.862 82.9588Z" fill="#75DDF9"/>
<path d="M113.862 78.0922C115.114 78.0922 116.128 76.9709 116.128 75.5877C116.128 74.2045 115.114 73.0833 113.862 73.0833C112.611 73.0833 111.597 74.2045 111.597 75.5877C111.597 76.9709 112.611 78.0922 113.862 78.0922Z" fill="white"/>
<path d="M63.2215 100.036C63.0509 99.7392 62.8711 99.4521 62.6822 99.1744C62.4675 98.8609 62.3252 98.4942 62.2677 98.1062C62.2102 97.7181 62.2392 97.3205 62.3521 96.9476L63.4791 93.231C63.644 92.684 63.6273 92.0899 63.432 91.5553C63.2367 91.0207 62.8755 90.5805 62.4133 90.3135L60.7518 89.3559C60.2884 89.0905 59.7545 89.0163 59.2461 89.1468C58.7377 89.2773 58.288 89.6039 57.9777 90.0679L55.8558 93.206C55.6408 93.5191 55.3603 93.7696 55.0383 93.9361C54.7163 94.1026 54.3626 94.1801 54.0075 94.1619C53.3763 94.1332 52.7441 94.1624 52.1174 94.2491C51.7646 94.297 51.4065 94.2492 51.0742 94.11C50.7418 93.9707 50.445 93.7442 50.2095 93.4499L47.8589 90.52C47.5129 90.0889 47.0393 89.8081 46.523 89.7279C46.0068 89.6476 45.4815 89.7732 45.0414 90.0821L43.47 91.1946C43.0298 91.5033 42.7034 91.9752 42.5494 92.5259C42.3953 93.0765 42.4238 93.6698 42.6296 94.1993L44.0255 97.7967C44.1657 98.158 44.2243 98.5516 44.1962 98.9436C44.1682 99.3356 44.0543 99.7141 43.8645 100.047C43.5269 100.637 43.2334 101.258 42.987 101.901C42.8477 102.263 42.6309 102.581 42.3555 102.829C42.0801 103.077 41.7542 103.247 41.406 103.325L37.9316 104.13C37.4209 104.246 36.9641 104.558 36.6429 105.012C36.3217 105.466 36.157 106.032 36.1784 106.608L36.2572 108.671C36.2773 109.248 36.483 109.798 36.8371 110.222C37.1913 110.646 37.6708 110.916 38.1892 110.985L41.7071 111.447C42.0603 111.494 42.398 111.635 42.6911 111.858C42.9841 112.081 43.2238 112.379 43.3895 112.727C43.5344 113.035 43.6938 113.336 43.8645 113.635C44.0352 113.934 44.2155 114.219 44.4038 114.495C44.6182 114.809 44.7602 115.176 44.8177 115.564C44.8752 115.952 44.8464 116.35 44.7339 116.723L43.6069 120.438C43.4423 120.986 43.4591 121.58 43.6544 122.115C43.8496 122.649 44.2106 123.09 44.6727 123.357L46.3262 124.313C46.7904 124.58 47.3253 124.654 47.8347 124.523C48.3441 124.392 48.7946 124.065 49.105 123.6L51.227 120.461C51.4404 120.146 51.7201 119.893 52.0418 119.724C52.3636 119.555 52.7178 119.475 53.0737 119.491C53.7054 119.52 54.3381 119.491 54.9654 119.404C55.3182 119.356 55.6762 119.404 56.0086 119.543C56.3409 119.683 56.6377 119.909 56.8733 120.203L59.2223 123.131C59.5684 123.563 60.0421 123.844 60.5587 123.925C61.0752 124.005 61.6008 123.88 62.0414 123.571L63.616 122.466C64.0564 122.157 64.383 121.685 64.5373 121.134C64.6915 120.583 64.6634 119.989 64.458 119.459L63.0621 115.862C62.9219 115.501 62.8633 115.108 62.8914 114.716C62.9194 114.324 63.0333 113.946 63.2231 113.614C63.5614 113.024 63.8544 112.403 64.099 111.759C64.2378 111.395 64.4553 111.073 64.7323 110.823C65.0092 110.573 65.3374 110.402 65.688 110.324L69.1592 109.539C69.6699 109.423 70.1265 109.11 70.4475 108.656C70.7684 108.201 70.9327 107.636 70.9109 107.06L70.8336 104.999C70.8132 104.422 70.6074 103.872 70.2533 103.448C69.8992 103.024 69.42 102.753 68.9016 102.685L65.3838 102.222C65.0304 102.175 64.6926 102.035 64.3994 101.812C64.1063 101.589 63.8667 101.29 63.7013 100.942C63.5521 100.639 63.3922 100.337 63.2215 100.036Z" fill="#F9CE46"/>
<path d="M53.5438 112.868C56.5599 112.868 59.0049 110.165 59.0049 106.83C59.0049 103.496 56.5599 100.792 53.5438 100.792C50.5277 100.792 48.0827 103.496 48.0827 106.83C48.0827 110.165 50.5277 112.868 53.5438 112.868Z" fill="#FF7348"/>
<path d="M50.8761 102.215C53.6839 100.331 57.4578 101.819 58.332 105.404C59.298 109.344 56.0635 112.969 52.4893 112.183C51.855 112.044 51.5829 113.119 52.2204 113.251C56.4563 114.182 60.3364 110.075 59.3576 105.33C58.4479 100.921 53.7934 98.9448 50.3673 101.236C49.8119 101.608 50.319 102.572 50.8761 102.2V102.215Z" fill="#112870"/>
<path d="M15.5575 28.3464C13.1895 50.1047 12.7043 72.0632 14.1085 93.9234C14.4417 99.0373 14.7959 104.18 15.4657 109.256C16.0179 113.438 16.9147 117.738 19.0769 121.3C23.3917 128.436 31.3773 129.566 38.5386 129.611C48.2566 129.673 57.9858 129.433 67.7038 129.322L97.5532 129.013L127.726 128.694C132.002 128.649 136.691 129.08 140.738 127.256C144.288 125.654 146.769 122.247 148.254 118.429C149.997 113.94 150.347 108.995 150.25 104.16C150.152 99.2438 149.741 94.331 149.501 89.4236C149.002 79.185 148.651 68.9375 148.213 58.6954C147.996 53.6224 147.759 48.5494 147.474 43.4835C147.33 40.8954 147.169 38.3085 146.991 35.7227C146.858 33.7647 146.568 31.8495 145.918 30.0072C144.718 26.6145 142.561 23.6454 139.693 21.8192C137.315 20.3008 134.772 19.9804 132.099 19.7063C122.085 18.6775 112.045 17.9263 102.002 17.362C90.0473 16.6874 78.0706 16.2834 66.0954 16.3759C55.4694 16.456 44.7645 16.8031 34.2383 18.5119C30.4854 19.1171 26.7019 19.8861 23.1116 21.2727C20.7916 22.1627 18.2172 23.3606 16.6458 25.5447C16.0541 26.3496 15.6771 27.3212 15.5575 28.35C15.4754 29.062 16.4848 29.062 16.5653 28.35C16.7988 26.3279 18.5859 24.8256 20.2039 23.8555C22.978 22.1912 26.1416 21.3172 29.2087 20.607C38.6384 18.4194 48.4144 17.937 58.0277 17.6415C69.7163 17.2855 81.4194 17.5276 93.1015 18.0349C103.728 18.4965 114.34 19.1978 124.938 20.1388C127.074 20.3287 129.21 20.531 131.345 20.7458C133.855 21.0004 136.351 21.1499 138.642 22.4511C141.672 24.1723 143.976 27.241 145.114 30.7743C145.736 32.7056 145.919 34.6601 146.059 36.6911C146.22 39.1676 146.371 41.6519 146.51 44.1439C147.067 54.1849 147.441 64.2383 147.843 74.29C148.041 79.2313 148.244 84.1744 148.487 89.1139C148.719 93.9021 149.101 98.6902 149.234 103.482C149.474 112.085 147.978 123.84 139.177 126.688C137.084 127.368 134.875 127.487 132.699 127.53C130.349 127.574 128 127.581 125.649 127.606L111.045 127.758L52.6309 128.365C48.0183 128.413 43.4024 128.514 38.7849 128.498C35.1238 128.486 31.3886 128.283 27.874 127.051C24.332 125.805 21.3181 123.39 19.4344 119.814C17.4138 115.979 16.6974 111.448 16.2272 107.108C13.933 86.1608 13.7704 64.8168 15.2033 43.7879C15.5543 38.6295 16.0083 33.4805 16.5653 28.3411C16.6426 27.6362 15.6331 27.6415 15.5575 28.3464Z" fill="#112870"/>
<path d="M19.5454 40.8189C34.1546 40.4327 48.7525 39.7207 63.3584 39.2419C78.1285 38.7577 92.9035 38.6313 107.677 39.1012C117.995 39.4288 128.306 40.0179 138.605 40.7869C139.249 40.835 139.249 39.7189 138.605 39.6708C121.436 38.3875 104.238 37.6416 87.0302 37.6772C72.9781 37.7057 58.9373 38.2629 44.8965 38.8236C36.4472 39.16 27.9915 39.4804 19.5454 39.7029C18.9014 39.7207 18.9014 40.8367 19.5454 40.8189Z" fill="#FF7348"/>
<path d="M24.2595 29.8258V29.5232C24.2693 29.2998 24.2195 29.0783 24.1162 28.886C24.047 28.6773 23.9287 28.493 23.7733 28.352C23.6236 28.1907 23.4399 28.0732 23.2388 28.0102C23.0378 27.9054 22.8168 27.8565 22.5948 27.8678C22.1633 27.8657 21.7459 28.0379 21.4211 28.352C21.2734 28.5011 21.1544 28.6818 21.0714 28.883C20.9884 29.0843 20.9431 29.3021 20.9381 29.5232V29.8258C20.9278 30.0498 20.9776 30.2721 21.0814 30.4648C21.1494 30.6741 21.268 30.8588 21.4243 30.9988C21.5741 31.1604 21.7577 31.2784 21.9588 31.3424C22.1598 31.4473 22.3809 31.4962 22.6028 31.4848C23.0346 31.4864 23.452 31.3135 23.7765 30.9988C23.9243 30.8496 24.0432 30.669 24.1262 30.4677C24.2092 30.2665 24.2546 30.0487 24.2595 29.8276V29.8258Z" fill="#A89FFF"/>
<path d="M30.1988 31.483C32.3337 31.483 32.3385 28.1704 30.1988 28.1704C28.0591 28.1704 28.0591 31.483 30.1988 31.483Z" fill="#A89FFF"/>
<path d="M36.8852 31.483C39.0216 31.483 39.0249 28.1704 36.8852 28.1704C34.7455 28.1704 34.7455 31.483 36.8852 31.483Z" fill="#A89FFF"/>
<path d="M128.056 31.0558H132.081C132.725 31.0558 132.725 29.9397 132.081 29.9397H128.056C127.412 29.9397 127.412 31.0558 128.056 31.0558Z" fill="#4081F4"/>
<path d="M128.752 114.723C128.752 114.723 127.399 131.599 121.729 141.877C116.149 139.249 106.854 134.326 101.633 134.452C96.4117 134.579 78.9319 114.103 79.014 107.218C79.497 103.34 90.5609 89.1281 106.263 89.8169C112.016 99.8277 128.752 114.723 128.752 114.723Z" fill="#FC92C3"/>
<path d="M101.325 134.13L77.6246 94.08L80.2006 91.766L84.6507 87.8269L87.9882 84.8721L117.681 119.917C118.666 121.079 119.423 122.453 119.904 123.954C120.385 125.455 120.58 127.049 120.477 128.638C120.374 130.226 119.974 131.773 119.304 133.183C118.634 134.592 117.707 135.833 116.582 136.827C115.445 137.831 114.132 138.561 112.726 138.971C111.319 139.381 109.851 139.462 108.414 139.208C106.978 138.954 105.605 138.371 104.385 137.497C103.164 136.622 102.122 135.476 101.325 134.13Z" fill="#4081F4"/>
<path d="M129.571 97.1525C129.571 97.1525 101.279 82.5387 93.7568 94.3632C91.8248 98.1012 97.2811 103.149 105.404 103.642C105.619 109.625 110.246 120.248 126.776 127.356C128.547 122.622 130.428 108.148 129.571 97.1525Z" fill="#FC92C3"/>
<path d="M96.5292 90.9437C94.7936 92.2876 92.6346 94.2794 93.401 96.9405C94.045 99.1797 96.373 100.856 98.165 101.848C99.1976 102.411 100.269 102.882 101.369 103.258C101.94 103.459 102.517 103.639 103.096 103.806C103.343 103.879 103.591 103.947 103.839 104.016C104.322 104.151 104.431 104.324 104.626 104.84C105.661 107.58 106.453 110.408 107.904 112.937C109.472 115.673 111.309 118.181 113.524 120.307C114.007 120.776 114.729 119.99 114.238 119.518C112.41 117.741 110.797 115.712 109.438 113.48C108.052 111.25 107.065 108.818 106.172 106.294C105.949 105.662 105.746 105.025 105.552 104.383C105.429 103.977 105.315 103.58 104.998 103.315C104.65 103.017 104.149 102.959 103.736 102.843C103.199 102.691 102.662 102.528 102.126 102.355C100.033 101.665 97.9396 100.734 96.2475 99.1744C95.2638 98.2559 94.0595 97.0099 94.3058 95.4506C94.5634 93.8184 95.8949 92.7931 97.0428 91.9066C97.5709 91.499 97.067 90.5307 96.534 90.9437H96.5292Z" fill="#112870"/>
<path d="M96.8561 93.9288C97.162 94.4047 97.5841 94.7745 98.073 94.9951C98.5619 95.2158 99.0975 95.2781 99.6172 95.1748C100.952 94.947 101.882 93.7847 102.676 92.6828C103.079 92.1275 102.369 91.3336 101.963 91.8943C101.082 93.1065 99.0135 95.3867 97.719 93.3592C97.3471 92.7772 96.4729 93.3343 96.848 93.9217L96.8561 93.9288Z" fill="white"/>
<path d="M81.5723 102.35C81.5723 102.35 74.4626 109.734 79.9478 116.191C83.7764 120.574 100.062 107.877 96.3827 103.135C92.7377 98.4625 86.0787 103.847 83.7587 105.935" fill="#FC92C3"/>
<path d="M96.5034 106.622C96.5034 106.622 100.261 105.609 102.496 109.048C104.731 112.487 95.3877 119.55 89.0974 124.356C85.2447 126.638 80.2537 120.697 84.137 115.791C88.0203 110.885 96.5034 106.622 96.5034 106.622Z" fill="#FC92C3"/>
<path d="M101.139 113.835C101.139 113.835 103.352 112.496 105.616 115.474C107.88 118.452 103.591 122.873 100.303 125.988C97.0154 129.103 93.0146 131.919 91.031 129.5C89.0475 127.081 88.4261 124.123 90.548 121.611C92.67 119.1 101.139 113.835 101.139 113.835Z" fill="#FC92C3"/>
<path d="M103.563 120.817C103.563 120.817 106.582 119.484 109.319 124.15C112.056 128.815 103.441 133.829 99.7685 135.645C96.0961 137.46 92.253 130.029 95.6437 127.124C99.0344 124.219 103.563 120.817 103.563 120.817Z" fill="#FC92C3"/>
<path d="M83.6541 106.444C84.839 105.508 86.0175 104.561 87.2122 103.641C88.3488 102.765 89.5434 101.91 90.8942 101.505C93.4171 100.753 96.5469 102.302 95.9029 105.657C95.3105 108.746 92.1613 110.842 89.962 112.468C88.7568 113.359 87.5118 114.183 86.2317 114.936C84.8696 115.737 83.3755 116.604 81.7832 116.341C81.1392 116.236 80.8736 117.311 81.5144 117.409C84.1258 117.841 86.6132 116.054 88.7594 114.625C91.044 113.103 93.533 111.359 95.3137 109.13C96.7772 107.298 97.711 104.456 96.3103 102.25C95.1221 100.383 92.8069 99.8616 90.8878 100.348C87.9898 101.083 85.5088 103.605 83.1469 105.469C82.6221 105.882 83.126 106.85 83.6557 106.432L83.6541 106.444Z" fill="#112870"/>
<path d="M97.2972 107.247C99.0553 107.535 102.024 108.826 102.029 111.216C102.029 113.708 99.3644 115.17 97.7625 116.378L91.9665 120.716C91.0005 121.441 90.0345 122.169 89.0685 122.886C88.2055 123.527 86.9191 124.499 85.9515 123.53C85.4685 123.05 84.7553 123.836 85.2383 124.319C87.2894 126.369 89.9942 123.537 91.6783 122.272L99.3129 116.553C101.1 115.214 103.383 113.429 102.989 110.679C102.623 108.046 99.68 106.519 97.5661 106.172C96.9317 106.067 96.6564 107.142 97.2988 107.24L97.2972 107.247Z" fill="#112870"/>
<path d="M103.179 114.486C103.542 114.638 103.876 114.868 104.159 115.162C104.442 115.457 104.67 115.81 104.829 116.202C104.988 116.595 105.076 117.018 105.087 117.448C105.097 117.877 105.031 118.305 104.892 118.707C104.314 120.398 102.89 121.781 101.744 123.014C100.53 124.323 99.2393 125.542 97.88 126.663C97.2017 127.222 96.5083 127.756 95.7999 128.265C94.9949 128.844 94.1464 129.511 93.1692 129.645C92.5348 129.735 92.5252 130.853 93.1692 130.761C95.1962 130.471 97.0332 128.762 98.6158 127.438C100.338 126.001 101.953 124.415 103.446 122.694C104.669 121.282 106.088 119.622 106.11 117.532C106.131 115.663 104.983 114.041 103.441 113.406C102.832 113.155 102.568 114.233 103.174 114.474L103.179 114.486Z" fill="#112870"/>
<path d="M105.6 121.462C108.19 122.959 109.866 126.701 107.358 129.271C106.291 130.364 104.919 131.168 103.703 132.044L99.4723 135.102C98.9314 135.492 99.4353 136.459 99.9811 136.065L105.133 132.341C106.479 131.369 108.083 130.447 108.955 128.888C110.726 125.72 108.76 122.035 106.102 120.499C105.528 120.168 105.017 121.129 105.594 121.464L105.6 121.462Z" fill="#112870"/>
<path d="M89.838 104.684C89.7125 105.72 89.999 106.757 90.7622 107.425C91.44 108.023 92.4479 108.107 92.9872 107.266C93.3639 106.681 92.4897 106.122 92.1162 106.704C91.9037 107.035 91.3289 106.526 91.1937 106.348C91.0478 106.161 90.9385 105.943 90.8728 105.708C90.8072 105.472 90.7865 105.224 90.8121 104.979C90.8974 104.278 89.925 103.973 89.8461 104.684H89.838Z" fill="white"/>
<path d="M96.0349 110.51C95.9253 111.057 95.9629 111.627 96.1432 112.151C96.3234 112.675 96.6385 113.129 97.0494 113.457C97.4604 113.785 97.9492 113.973 98.4556 113.997C98.9619 114.021 99.4637 113.881 99.8989 113.594C100.462 113.238 99.9553 112.274 99.3902 112.631C98.2004 113.384 96.7482 112.334 97.0154 110.807C97.1378 110.105 96.1654 109.805 96.0494 110.51H96.0349Z" fill="white"/>
<path d="M100.232 118.703C100.41 119.274 100.769 119.754 101.243 120.054C101.717 120.354 102.273 120.454 102.808 120.335C103.444 120.198 103.175 119.121 102.539 119.267C102.262 119.318 101.977 119.261 101.733 119.105C101.49 118.949 101.303 118.704 101.205 118.413C100.992 117.74 100.018 118.028 100.231 118.71L100.232 118.703Z" fill="white"/>
<path d="M104.677 125.063C104.681 125.454 104.778 125.837 104.96 126.173C105.141 126.509 105.4 126.786 105.71 126.974C106.021 127.163 106.371 127.256 106.724 127.246C107.078 127.235 107.423 127.121 107.724 126.914C108.277 126.54 107.77 125.576 107.215 125.951C106.537 126.409 105.711 125.962 105.685 125.061C105.666 124.349 104.656 124.349 104.677 125.061V125.063Z" fill="white"/>
<path d="M71.8479 64.8436L78.4666 73.9732C78.8102 74.4361 79.0331 74.9937 79.1114 75.5862C79.1897 76.1786 79.1204 76.7835 78.911 77.3357L77.148 81.7857C76.9753 82.2222 76.7092 82.6059 76.3727 82.9036C76.0361 83.2012 75.6392 83.404 75.216 83.4945L70.9109 84.429C70.3778 84.535 69.8287 84.4783 69.3226 84.265C68.8165 84.0518 68.3726 83.69 68.0386 83.2186L61.4199 74.0889C60.4539 72.7575 58.6201 73.0209 58.1178 74.5553L56.3114 80.1C56.1541 80.6034 56.1159 81.143 56.2004 81.6673C56.285 82.1917 56.4894 82.6834 56.7944 83.0957L66.5462 96.5454C66.8439 96.964 67.2334 97.2914 67.6778 97.4967C68.1221 97.702 68.6066 97.7783 69.0851 97.7184L83.9116 95.6269C84.3744 95.5649 84.8124 95.3617 85.1766 95.0401C85.5409 94.7185 85.817 94.2912 85.974 93.806L91.0471 78.263C91.204 77.7595 91.2419 77.2201 91.1574 76.6958C91.0729 76.1716 90.8687 75.6799 90.5641 75.2673L80.8059 61.8087C80.5081 61.3903 80.1186 61.0629 79.6742 60.8577C79.2299 60.6524 78.7455 60.576 78.267 60.6357L72.9781 61.3815C71.5098 61.588 70.8819 63.5122 71.8479 64.8436Z" fill="#4081F4"/>
<path d="M72.289 62.2287L76.0403 61.5328C77.1786 61.3227 78.729 60.746 79.7997 61.4544C80.7737 62.0988 81.4966 63.4569 82.205 64.4039L84.7553 67.8179C86.4731 70.1159 88.3246 72.3516 89.925 74.7599C90.7396 75.9828 90.4901 77.3979 90.247 78.7899C90.0226 80.0258 89.7383 81.2474 89.3953 82.4495C88.6068 85.251 87.5 87.9306 86.1012 90.4239C85.7567 91.0345 86.6293 91.5952 86.9722 90.9864C88.3166 88.5811 89.3975 86.0075 90.1922 83.32C90.6136 81.93 90.9556 80.5121 91.2162 79.0747C91.4368 77.8411 91.6992 76.4883 91.3224 75.2583C90.9216 73.9411 89.8203 72.8411 89.0379 71.7945L86.0835 67.8429L83.237 64.023C82.4111 62.9194 81.627 61.531 80.5677 60.6784C79.5083 59.8257 78.2187 60.0091 76.9854 60.2351L72.0347 61.1536C71.3907 61.2711 71.666 62.3462 72.3019 62.2216L72.289 62.2287Z" fill="#112870"/>
<path d="M88.6 85.9097L94.879 93.1721C95.3298 93.6919 96.0414 92.9016 95.5938 92.3818L89.3148 85.1194C88.8656 84.5997 88.1524 85.39 88.6016 85.9097H88.6Z" fill="#112870"/>
<path d="M58.8874 74.4041C60.8387 73.1581 62.4294 76.0595 63.4115 77.4639C64.5675 79.1252 65.783 80.7272 67.0582 82.2699C67.6072 82.9338 68.1626 83.7722 68.8598 84.2564C69.6052 84.7726 70.5535 84.6373 71.3891 84.5821C73.3784 84.4466 75.3512 84.0991 77.2801 83.5444C77.908 83.3664 77.6423 82.2877 77.0112 82.4764C74.9749 83.0668 72.887 83.4129 70.7837 83.5088C70.1397 83.5355 69.5826 83.539 69.0868 83.0246C68.7342 82.6579 68.4122 82.2485 68.0837 81.8551C67.37 81.0043 66.6755 80.1351 66.0004 79.2474C64.7897 77.6579 63.7673 75.78 62.4133 74.34C61.3346 73.1901 59.7681 72.56 58.3883 73.45C57.8248 73.806 58.3336 74.7725 58.8971 74.413L58.8874 74.4041Z" fill="#112870"/>
<path d="M80.001 96.9549L81.5659 96.0275C82.139 95.6875 81.6303 94.7245 81.0571 95.0645L79.4906 95.9919C78.919 96.3301 79.4278 97.2931 80.001 96.9549Z" fill="#112870"/>
<path d="M129.574 97.083C129.574 97.083 156.424 107.297 156.944 113.715C157.465 120.134 152.577 157.653 150.245 160.734C147.914 163.815 129.175 145.469 121.748 141.898C114.321 138.327 130.196 105.353 129.574 97.083Z" fill="#FC92C3"/>
<path d="M132.695 128.569C134.751 121.923 135.512 114.871 134.928 107.877C134.868 107.165 133.859 107.165 133.918 107.877C134.499 114.771 133.75 121.722 131.721 128.272C131.51 128.954 132.485 129.246 132.695 128.569Z" fill="#112870"/>
<path d="M130.6 135.458C131.244 135.458 131.244 134.342 130.6 134.342C129.956 134.342 129.956 135.458 130.6 135.458Z" fill="#112870"/>
<path d="M46.0734 70.9865C45.9822 70.4679 45.8748 69.9594 45.7514 69.461C45.6079 68.8931 45.5916 68.2951 45.7038 67.7186C45.816 67.1421 46.0533 66.6044 46.3954 66.152L49.7893 61.6415C50.2887 60.9777 50.5581 60.1391 50.5492 59.2758C50.5404 58.4125 50.2539 57.5809 49.741 56.9298L47.9056 54.5998C47.3924 53.9486 46.6863 53.5206 45.9137 53.3924C45.1411 53.2642 44.3525 53.4442 43.689 53.9003L39.181 56.9992C38.7275 57.312 38.2118 57.4975 37.6787 57.5397C37.1455 57.5819 36.6112 57.4795 36.122 57.2413C35.2553 56.821 34.3587 56.4805 33.4414 56.2232C32.9253 56.0779 32.4491 55.7958 32.0538 55.4012C31.6586 55.0067 31.3562 54.5117 31.1729 53.959L29.3375 48.457C29.0677 47.6462 28.5456 46.968 27.8647 46.544C27.1838 46.12 26.3886 45.9778 25.6216 46.143L22.8846 46.7358C22.118 46.9018 21.4299 47.3641 20.9435 48.0399C20.457 48.7157 20.204 49.5607 20.2297 50.4239L20.4036 56.2837C20.4216 56.8721 20.3098 57.4566 20.0778 57.9866C19.8458 58.5166 19.5007 58.9762 19.0721 59.3257C18.3099 59.9461 17.5954 60.6349 16.9356 61.3852C16.5624 61.8118 16.1003 62.1307 15.5898 62.3141C15.0792 62.4975 14.5358 62.5397 14.007 62.4371L8.77615 61.4421C8.0063 61.296 7.21453 61.4575 6.54256 61.8978C5.87058 62.338 5.36226 63.0283 5.10857 63.8451L4.20375 66.7679C3.95014 67.5847 3.96785 68.4746 4.25372 69.2783C4.53959 70.0819 5.07492 70.7468 5.76384 71.1538L10.4441 73.9181C10.9144 74.1956 11.3164 74.5956 11.6155 75.0834C11.9145 75.5713 12.1015 76.1324 12.1604 76.7181C12.2135 77.2325 12.2843 77.7505 12.3761 78.2685C12.4679 78.7864 12.5774 79.2955 12.6981 79.7939C12.842 80.3615 12.8586 80.9594 12.7464 81.5357C12.6341 82.112 12.3965 82.6493 12.0541 83.1012L8.67311 87.6117C8.17359 88.2757 7.90414 89.1146 7.91298 89.9782C7.92183 90.8418 8.20841 91.6738 8.72141 92.3251L10.5584 94.6551C11.0714 95.3063 11.7773 95.7341 12.5497 95.862C13.3221 95.9898 14.1104 95.8094 14.7734 95.3529L19.2814 92.2539C19.7352 91.942 20.2509 91.757 20.7838 91.7148C21.3168 91.6727 21.851 91.7746 22.3404 92.0118C23.2072 92.4338 24.1044 92.775 25.0227 93.0318C25.5383 93.1773 26.0143 93.4593 26.4095 93.8534C26.8046 94.2476 27.1072 94.742 27.2911 95.2942L29.1249 100.796C29.3945 101.607 29.9165 102.286 30.5975 102.71C31.2784 103.134 32.0737 103.276 32.8408 103.11L35.5778 102.517C36.3444 102.352 37.0327 101.89 37.5192 101.215C38.0057 100.539 38.2586 99.6941 38.2327 98.831L38.0588 92.9695C38.0407 92.3813 38.1524 91.797 38.3844 91.2673C38.6164 90.7375 38.9617 90.2783 39.3903 89.9292C40.1525 89.3082 40.8671 88.6188 41.5268 87.868C41.8981 87.4449 42.357 87.1281 42.8639 86.9452C43.3708 86.7622 43.9104 86.7185 44.436 86.8178L49.6669 87.811C50.4366 87.958 51.2285 87.7971 51.9006 87.3571C52.5727 86.917 53.0811 86.2267 53.3345 85.4098L54.2409 82.4871C54.4949 81.6703 54.4773 80.7802 54.1914 79.9765C53.9055 79.1727 53.37 78.5079 52.6809 78.1011L48.0006 75.335C47.5308 75.0574 47.1291 74.6576 46.8301 74.1701C46.5311 73.6827 46.3438 73.1221 46.2843 72.5369C46.236 72.0207 46.1652 71.5045 46.0734 70.9865Z" fill="#F9CE46"/>
<path d="M29.2248 83.6688C33.7418 83.6688 37.4036 79.6204 37.4036 74.6264C37.4036 69.6324 33.7418 65.584 29.2248 65.584C24.7077 65.584 21.046 69.6324 21.046 74.6264C21.046 79.6204 24.7077 83.6688 29.2248 83.6688Z" fill="#FF7348"/>
<path d="M27.7903 66.2909C32.8505 65.2763 37.526 70.0698 36.8353 75.7587C36.6716 77.0482 36.2442 78.2795 35.5855 79.3591C34.9268 80.4386 34.0543 81.3379 33.0341 81.9887C30.4806 83.6049 27.3572 83.3967 24.9132 81.6327C24.3674 81.2411 23.8603 82.2058 24.4045 82.5957C28.4794 85.5255 34.05 84.2422 36.6195 79.6462C38.9379 75.4988 37.9816 69.9185 34.4782 66.9726C33.4951 66.1559 32.3682 65.5756 31.1701 65.2691C29.972 64.9625 28.7292 64.9365 27.5214 65.1926C26.8774 65.3208 27.1543 66.3959 27.7903 66.2695V66.2909Z" fill="#112870"/>
<path d="M84.4301 61.8212C88.8979 63.6208 93.5653 64.6336 98.2536 65.4399C102.887 66.2356 107.603 66.7393 112.177 67.907C114.27 68.441 116.482 69.2652 118.005 71.038C119.319 72.5671 120.164 74.9078 119.491 76.985C118.86 78.9323 117.38 80.6358 115.722 81.5454C113.834 82.5831 111.536 82.5529 109.475 82.6134C104.285 82.7807 99.1053 82.2218 93.9211 82.0901C93.2771 82.074 93.2771 83.1901 93.9211 83.2061C98.9636 83.3343 103.998 83.8629 109.047 83.7401C111.196 83.6885 113.579 83.7241 115.601 82.8127C117.321 82.0244 118.769 80.6533 119.739 78.8967C122.045 74.7778 119.76 70.1854 116.134 68.2167C114.041 67.0758 111.702 66.6147 109.416 66.1875C106.872 65.7016 104.315 65.3064 101.762 64.8988C95.9899 63.975 90.1987 62.9622 84.6958 60.7479C84.0856 60.5022 83.8215 61.5791 84.4285 61.8159L84.4301 61.8212Z" fill="#112870"/>
<path d="M59.6055 69.2972C61.0545 65.0252 64.8896 62.0081 69.0128 61.8586C69.6568 61.8337 69.6648 60.7194 69.0128 60.7425C66.7414 60.8451 64.5472 61.6824 62.7022 63.1505C60.8571 64.6186 59.4423 66.6531 58.6331 69.0017C58.4045 69.6746 59.3801 69.9647 59.5991 69.2972H59.6055Z" fill="#112870"/>
<path d="M54.117 45.4364C61.677 45.7267 69.2459 45.5448 76.7874 44.8917C80.7399 44.55 84.6909 44.0783 88.6547 44.1299C92.794 44.1833 96.9236 44.8098 101.063 44.6639C103.377 44.5802 105.695 44.2563 107.999 44.4859C109.198 44.6087 110.428 44.9024 111.394 45.6927C112.36 46.483 113.004 47.859 112.702 49.1388C112.449 50.2068 111.594 51.0167 110.65 51.4208C109.707 51.8248 108.677 51.8907 107.666 51.9423C101.448 52.2609 95.2202 52.236 88.9895 52.1773C82.2614 52.1132 75.5332 51.9993 68.805 51.9014L54.2264 51.6735C53.9543 51.6735 53.6565 51.6557 53.4488 51.4617C53.2853 51.2803 53.1786 51.0457 53.1445 50.7924C52.8219 49.2881 52.9345 47.7099 53.4665 46.2801" fill="#E3E5E5"/>
<path d="M103.216 45.7886C103.188 47.45 103.196 49.1113 103.241 50.7726C103.261 51.4846 104.27 51.4846 104.251 50.7726C104.206 49.1113 104.197 47.45 104.225 45.7886C104.238 45.0766 103.228 45.0766 103.216 45.7886Z" fill="white"/>
<path d="M108.411 46.3371C108.053 46.2229 107.669 46.2559 107.331 46.4299C106.993 46.604 106.724 46.9074 106.572 47.284C106.233 48.1295 106.558 49.1495 107.197 49.703C108.673 50.9775 110.601 48.6706 109.58 47.0544C109.363 46.7326 109.052 46.5037 108.7 46.4063C108.348 46.309 107.976 46.3493 107.648 46.5204C107.34 46.6991 107.098 46.9917 106.965 47.3472C106.831 47.7027 106.815 48.0985 106.919 48.4659C107.109 49.1779 107.873 49.9309 108.57 49.477C109.268 49.0231 109.356 47.7664 108.762 47.2004C108.065 46.5346 106.83 47.3659 107.356 48.3342C107.467 48.5176 107.63 48.654 107.82 48.721C108.009 48.788 108.214 48.7815 108.4 48.7027C108.847 48.5247 109.01 48.0565 109.066 47.5759C109.15 46.8639 108.141 46.8728 108.058 47.5759C108.028 47.8251 108.174 48.0512 108.129 48.3075C108.121 48.3817 108.097 48.4526 108.058 48.514C108.108 48.4659 108.092 48.4303 108.01 48.4036C107.943 48.3211 107.896 48.2205 107.875 48.1119C107.853 48.0032 107.858 47.8903 107.888 47.7842C108.062 47.2146 108.809 47.4745 108.839 48.0103C108.883 48.7614 108.097 49.2936 107.632 48.6226C107.302 48.1455 107.445 47.1701 108.134 47.4051C108.757 47.6169 109.023 46.54 108.403 46.3282L108.411 46.3371Z" fill="#75DDF9"/>
<path d="M122.745 56.7821C128.462 56.6258 134.18 57.0345 139.832 58.0032L139.461 57.4692L139.365 62.6454C139.35 63.3859 139.513 64.4966 139.292 65.1837C139.064 65.8957 138.228 65.6536 137.724 65.5219C136.395 65.1488 135.03 64.9545 133.659 64.9434C132.252 64.9434 130.848 65.0894 129.441 65.0822C128.036 65.0793 126.636 64.8911 125.271 64.5215C124.572 64.3325 123.884 64.0947 123.212 63.8095C122.523 63.5158 122.568 63.0637 122.598 62.366C122.7 60.383 122.849 58.32 123.273 56.3852C123.434 55.6874 122.453 55.3901 122.307 56.0897C121.908 57.9071 121.766 59.8277 121.637 61.6896C121.586 62.4336 121.384 63.5247 121.811 64.1673C122.049 64.5233 122.455 64.6728 122.814 64.8277C123.485 65.1182 124.172 65.3626 124.87 65.5593C127.493 66.3033 130.086 66.1716 132.759 66.0808C134.208 66.031 135.657 66.0808 137.067 66.4849C137.834 66.7038 138.742 66.9851 139.495 66.5632C140.622 65.9313 140.347 64.1406 140.368 62.9925L140.473 57.4745C140.472 57.3531 140.435 57.2354 140.368 57.139C140.301 57.0427 140.208 56.973 140.102 56.9405C134.363 55.9485 128.554 55.5261 122.746 55.6785C122.102 55.6963 122.102 56.8124 122.746 56.7946L122.745 56.7821Z" fill="#E3E5E5"/>
<path d="M124.337 71.898L131.556 71.8873H135.01C136.209 71.8873 137.455 71.7716 138.613 72.1774C139.234 72.3964 139.5 71.3195 138.882 71.1094C137.827 70.7392 136.733 70.7748 135.638 70.7766H131.87L124.337 70.789C123.693 70.789 123.693 71.9051 124.337 71.9033V71.898Z" fill="#E3E5E5"/>
<path d="M124.667 76.9423C128.898 77.6324 133.172 77.9467 137.449 77.8821C138.093 77.8714 138.093 76.7554 137.449 76.7661C133.263 76.8356 129.079 76.5344 124.936 75.8654C124.302 75.7621 124.026 76.8373 124.669 76.9423H124.667Z" fill="#E3E5E5"/>
<path d="M128.559 82.1631C131.386 83.0716 134.353 83.3249 137.273 82.9072C137.917 82.8164 137.917 81.7003 137.273 81.7929C134.443 82.2024 131.567 81.96 128.826 81.0809C128.201 80.8815 127.934 81.9584 128.559 82.1489V82.1631Z" fill="#E3E5E5"/>
<path d="M130.571 87.2522C132.704 87.3534 134.84 87.3058 136.968 87.1098C137.612 87.051 137.612 85.935 136.968 85.9937C134.84 86.1897 132.704 86.2373 130.571 86.1361C129.927 86.1058 129.927 87.2219 130.571 87.2522Z" fill="#E3E5E5"/>
<path d="M27.1189 113.018C25.6168 113.055 24.3497 114.689 24.4237 116.348C24.4978 118.007 25.7922 119.452 27.2783 119.693C28.7643 119.933 30.3131 119.052 31.1181 117.649C31.3192 117.307 31.4677 116.931 31.5577 116.535C31.6538 116.075 31.6527 115.598 31.5544 115.139C31.4561 114.68 31.2632 114.253 30.9909 113.89C30.7135 113.532 30.3641 113.25 29.9708 113.068C29.5775 112.886 29.1512 112.807 28.7257 112.84" fill="#E3E5E5"/>
<path d="M136.995 92.4496C136.631 92.1061 136.05 92.2129 135.678 92.544C135.306 92.875 135.095 93.3699 134.895 93.8487C134.648 94.445 134.396 95.1339 134.641 95.7302C134.798 96.0434 135.018 96.3121 135.285 96.5151C135.649 96.8409 136.042 97.1791 136.507 97.2396C136.83 97.2709 137.153 97.1967 137.438 97.026C137.837 96.8008 138.17 96.4531 138.395 96.0245C138.621 95.596 138.73 95.1047 138.709 94.6094C138.689 94.1141 138.54 93.6358 138.28 93.2316C138.02 92.8274 137.661 92.5146 137.244 92.3304" fill="#E3E5E5"/>
<path d="M6.19692 97.1293C7.6533 98.2886 9.357 99.0099 11.1412 99.2226C11.7852 99.3062 11.7852 98.1902 11.1412 98.1083C9.53671 97.8937 8.00947 97.2248 6.70729 96.1663C6.18082 95.7445 5.67528 96.711 6.19692 97.1293Z" fill="#112870"/>
<path d="M40.2162 116.257C38.917 118.854 39.4934 122.309 41.6234 124.141C42.1305 124.578 42.8486 123.794 42.3382 123.352C40.5672 121.819 39.9876 119.02 41.0873 116.819C41.4012 116.191 40.5302 115.629 40.2162 116.257Z" fill="#112870"/>
<path d="M73.189 112.037L73.5014 111.35C73.5604 111.223 73.5732 111.075 73.5371 110.938C73.501 110.801 73.4188 110.684 73.3073 110.612C73.1958 110.54 73.0635 110.518 72.9376 110.55C72.8117 110.582 72.7018 110.666 72.6304 110.785L72.318 111.474C72.2532 111.603 72.2359 111.754 72.2699 111.897C72.3038 112.039 72.3862 112.161 72.4999 112.238C72.6158 112.31 72.7528 112.33 72.8815 112.292C73.0102 112.255 73.1206 112.163 73.189 112.037Z" fill="#112870"/>
<path d="M38.3647 45.4967L39.2599 41.7018C39.4209 41.0058 38.4549 40.7103 38.2939 41.4045L37.4004 45.2012C37.2394 45.8954 38.2054 46.1927 38.3664 45.4967H38.3647Z" fill="#112870"/>
<path d="M43.5377 47.1146L46.3165 43.9943C46.7737 43.4834 46.0605 42.6931 45.6033 43.2058L42.826 46.3261C42.3704 46.837 43.0836 47.6273 43.5393 47.1146H43.5377Z" fill="#112870"/>
<path d="M48.1696 51.7569L50.971 51.4116C51.615 51.3333 51.615 50.2172 50.971 50.2973L48.1696 50.6426C47.5256 50.721 47.5256 51.837 48.1696 51.7569Z" fill="#112870"/>
</svg>
