<svg width="197" height="197" viewBox="0 0 197 197" fill="none" xmlns="http://www.w3.org/2000/svg">
<path d="M122.346 164.583C122.346 164.583 125.413 185.534 130.464 185.534H146.699C150.208 185.534 154.816 164.583 154.816 164.583H122.346Z" fill="#FF7348"/>
<path d="M56.2548 164.583C56.2548 164.583 59.3154 185.534 64.3732 185.534H80.608C84.1188 185.534 88.7264 164.583 88.7264 164.583H56.2548Z" fill="#FF7348"/>
<path d="M18.3873 151.769C18.3873 151.769 21.4459 172.719 26.5037 172.719H42.7405C46.2493 172.719 50.8569 151.769 50.8569 151.769H18.3873Z" fill="#FF7348"/>
<path d="M67.7031 169.838C60.7209 169.334 25.8039 154.143 19.9716 153.784C14.1394 153.424 18.0275 72.2065 19.9716 65.3737C21.9157 58.5408 109.532 51.6982 112.341 59.8323C115.15 67.9664 74.6971 170.343 67.7031 169.838Z" fill="#FF7348"/>
<path d="M156.04 169.767C149.056 169.264 73.4626 170.129 67.6323 169.767C61.802 169.405 65.6882 88.1899 67.6323 81.3591C69.5764 74.5282 153.233 73.223 156.04 81.3591C158.847 89.4952 163.025 170.272 156.04 169.767Z" fill="#F9CE46"/>
<path d="M148.256 157.324C145.308 157.127 142.294 157.428 139.355 157.554C133.804 157.79 128.253 158.055 122.7 158.287C110.67 158.79 98.5786 159.38 86.5465 158.889C84.5257 158.806 82.4971 158.692 80.494 158.427C79.9043 158.346 79.1554 158.23 78.5106 158.065C78.2531 158.002 77.9995 157.927 77.7479 157.847C77.578 157.811 77.416 157.745 77.2703 157.65C77.2015 157.615 77.1425 157.564 77.0737 157.528C77.0442 157.515 77.1897 157.662 77.0521 157.493C77.0186 157.452 77.172 157.666 77.0521 157.477C76.9941 157.382 76.9422 157.284 76.8968 157.182C76.9597 157.312 76.7926 156.895 76.7356 156.711C76.6471 156.418 76.5764 156.121 76.5115 155.822C76.1498 154.161 76.0043 152.502 75.8687 150.798C74.9487 139.2 75.3085 127.435 75.6938 115.808C75.8746 110.336 76.1105 104.863 76.5056 99.4023C76.6373 97.5918 76.7788 95.7795 76.997 93.9769C77.0599 93.4599 77.1012 93.0923 77.2191 92.4692C77.2545 92.2903 77.2978 92.1134 77.3371 91.9345C77.3548 91.8618 77.4118 91.5866 77.3214 91.9208C77.3666 91.7537 77.4747 91.8028 77.3214 91.8913C77.3823 91.8579 77.4314 91.7655 77.4885 91.7203C77.6614 91.5866 77.343 91.8126 77.5297 91.6888C77.7144 91.5675 77.9068 91.4585 78.1057 91.3625C78.2835 91.2716 78.469 91.1967 78.66 91.1384C78.9686 91.0283 79.2812 90.932 79.5957 90.8416C81.2476 90.3987 82.9266 90.0638 84.622 89.8391C89.6149 89.1039 94.6747 88.7796 99.7108 88.5378C111.352 87.9834 123.123 87.9323 134.738 88.9742C138.441 89.3064 142.404 89.615 145.909 90.9163C146.351 91.0699 146.77 91.2822 147.155 91.5473C147.352 91.6849 147.053 91.4667 147.226 91.6062C147.3 91.6633 147.366 91.7294 147.423 91.8028C147.474 91.8716 147.313 91.6397 147.434 91.8323C147.556 92.0249 147.387 91.6574 147.476 91.9267C147.841 93.0471 148.003 94.2423 148.174 95.404C148.83 99.8681 149.17 104.399 149.489 108.901C149.918 114.998 150.215 121.104 150.377 127.217C150.534 133.077 150.589 138.949 150.344 144.806C150.186 148.514 150.163 152.6 148.94 156.15C148.816 156.51 148.652 156.854 148.451 157.177C148.439 157.194 148.254 157.395 148.297 157.322C148.258 157.381 148.349 157.322 148.264 157.322C147.153 157.273 147.155 159.001 148.264 159.05C150.808 159.162 151.203 154.348 151.429 152.703C152.127 147.645 152.215 142.497 152.231 137.398C152.287 125.34 151.734 113.287 150.574 101.285C150.377 99.2037 150.145 97.124 149.844 95.0521C149.671 93.8727 149.526 92.6088 149.131 91.4686C148.311 89.1098 144.517 88.6341 142.447 88.2468C137.622 87.3446 132.676 87.0163 127.779 86.7765C121.631 86.4757 115.468 86.4148 109.313 86.5111C103.416 86.6035 97.4994 86.8355 91.6121 87.3348C87.4841 87.6846 83.2126 88.0306 79.2065 89.153C78.1843 89.4381 76.9656 89.7821 76.1891 90.5566C75.5286 91.2151 75.4854 92.2746 75.3655 93.1493C74.7895 97.3481 74.5949 101.614 74.3826 105.844C73.7339 118.297 73.3998 130.808 73.7654 143.279C73.8873 147.552 73.9364 151.987 74.8249 156.188C75.0333 157.171 75.2947 158.372 76.1695 158.985C77.0933 159.634 78.3612 159.83 79.4483 160.005C83.9557 160.729 88.6006 160.731 93.1513 160.754C99.5025 160.788 105.852 160.624 112.199 160.414C123.166 160.05 134.125 159.37 145.095 159.066C146.145 159.038 147.208 158.985 148.258 159.052C149.367 159.123 149.363 157.395 148.256 157.324Z" fill="#112870"/>
<path d="M19.8989 65.4582L67.7031 81.296H154.672C154.672 81.296 156.689 70.7853 108.163 56.0995C90.0553 50.6073 21.6229 54.7942 19.8989 65.4582Z" fill="#75DDF9"/>
<path d="M66.4746 82.2535C63.471 105.524 62.2267 129.067 62.9697 152.524C63.1663 158.521 63.642 164.617 65.9694 170.215C66.2839 170.974 67.542 170.642 67.2176 169.871C65.1202 164.821 64.5383 159.376 64.3182 153.959C64.0843 148.229 64.0489 142.485 64.0862 136.751C64.1596 125.122 64.6838 113.508 65.6588 101.909C66.2144 95.3432 66.9162 88.7908 67.7641 82.2515C67.8702 81.4279 66.5729 81.4357 66.4667 82.2515L66.4746 82.2535Z" fill="#112870"/>
<path d="M20.3156 65.2323L66.6377 82.167C67.424 82.454 67.7601 81.2018 66.9817 80.9168L20.6596 63.9821C19.8734 63.6951 19.5372 64.9473 20.3156 65.2323Z" fill="#112870"/>
<path d="M67.2628 82.2043L135.621 81.6146L154.747 81.4514C155.58 81.4514 155.582 80.1482 154.747 80.156L86.4089 80.7458L67.2628 80.9089C66.4293 80.9089 66.4274 82.2122 67.2628 82.2043Z" fill="#112870"/>
<path d="M20.4572 145.084C20.522 146.664 21.0871 148.184 22.071 149.423C23.0549 150.662 24.4067 151.556 25.9317 151.977C26.7376 152.194 27.0816 150.945 26.2757 150.727C25.0224 150.385 23.9097 149.654 23.0974 148.641C22.2852 147.627 21.815 146.381 21.7545 145.084C21.7211 144.252 20.4257 144.248 20.4572 145.084Z" fill="#112870"/>
<path d="M24.1901 156.017C27.8188 158.105 31.8328 159.292 35.8389 160.418C39.9669 161.578 43.9455 162.895 47.8553 164.65C51.5901 166.323 55.2562 168.143 59.1188 169.49C63.0758 170.866 67.1311 171.456 71.3063 171.642C80.3623 172.057 89.44 171.041 98.4921 170.856C108.017 170.654 117.538 170.396 127.056 170.082C137.879 169.725 148.7 169.296 159.518 168.794C160.347 168.757 160.353 167.459 159.518 167.499C140.49 168.379 121.452 169.035 102.406 169.464C97.9161 169.567 93.4323 169.661 88.9466 169.893C84.5277 170.131 80.1009 170.412 75.678 170.428C71.2866 170.443 66.7891 170.292 62.5215 169.175C58.5154 168.128 54.7432 166.382 50.9926 164.654C46.8017 162.728 42.6147 160.992 38.1741 159.72C33.6137 158.437 28.9805 157.279 24.8446 154.898C24.1193 154.482 23.4686 155.602 24.1901 156.019V156.017Z" fill="#112870"/>
<path d="M69.5725 99.8958C72.4778 103.385 78.0683 102.693 80.0576 98.622C80.5451 97.6274 79.0551 96.7507 78.5657 97.7492C77.0344 100.894 73.0204 101.348 70.7932 98.6751C70.0816 97.82 68.8649 99.0466 69.5725 99.8958Z" fill="#112870"/>
<path d="M69.5194 150.075C72.8376 152.217 77.3489 151.757 80.2149 149.064C81.0287 148.301 79.8041 147.083 78.9942 147.843C76.6727 150.023 73.0518 150.301 70.3903 148.583C69.4546 147.977 68.5877 149.473 69.5194 150.075Z" fill="#112870"/>
<path d="M57.446 85.485C60.314 86.3381 60.1174 89.9943 59.9562 92.3532C59.8796 93.4638 61.6074 93.4579 61.6841 92.3532C61.9062 89.1058 61.6389 84.9287 57.904 83.82C56.8366 83.5036 56.3806 85.1705 57.446 85.485Z" fill="#112870"/>
<path d="M117.192 148.384C126.374 148.384 133.818 138.459 133.818 126.216C133.818 113.974 126.374 104.049 117.192 104.049C108.01 104.049 100.566 113.974 100.566 126.216C100.566 138.459 108.01 148.384 117.192 148.384Z" fill="#4081F4"/>
<path d="M138.113 127.081C138.113 136.342 132.483 143.851 125.532 143.851C118.582 143.851 112.952 136.342 112.952 127.081C112.952 117.821 119.962 110.373 125.578 110.373C132.532 110.373 138.113 117.821 138.113 127.081Z" fill="#75DDF9"/>
<path d="M105.897 111.753L107.045 112.763C107.385 113.062 107.937 113.123 108.268 112.763C108.568 112.437 108.629 111.861 108.268 111.543L107.12 110.532C106.78 110.233 106.227 110.172 105.897 110.532C105.596 110.858 105.535 111.434 105.897 111.753Z" fill="#112870"/>
<path d="M104.071 119.478H105.362C105.479 119.484 105.596 119.465 105.706 119.425C105.815 119.384 105.916 119.321 106 119.24C106.085 119.159 106.153 119.062 106.199 118.955C106.245 118.847 106.268 118.731 106.268 118.614C106.268 118.497 106.245 118.381 106.199 118.274C106.153 118.166 106.085 118.069 106 117.988C105.916 117.907 105.815 117.845 105.706 117.804C105.596 117.763 105.479 117.745 105.362 117.75H104.067C103.845 117.761 103.636 117.856 103.482 118.017C103.329 118.178 103.243 118.392 103.243 118.614C103.243 118.836 103.329 119.05 103.482 119.211C103.636 119.372 103.845 119.468 104.067 119.478H104.071Z" fill="#112870"/>
<path d="M103.542 131.583C104.028 131.717 104.543 131.697 105.016 131.526C105.437 131.367 105.773 130.936 105.62 130.464C105.488 130.054 105.008 129.678 104.556 129.861C104.492 129.886 104.426 129.908 104.36 129.926C104.316 129.938 104.271 129.947 104.226 129.953C104.33 129.942 104.35 129.938 104.283 129.942C104.216 129.946 104.144 129.942 104.087 129.942C104.03 129.942 104.041 129.942 104.146 129.942C104.1 129.934 104.054 129.923 104.01 129.91C103.792 129.859 103.562 129.894 103.37 130.008C103.177 130.122 103.036 130.307 102.977 130.523C102.918 130.739 102.944 130.969 103.052 131.166C103.159 131.363 103.338 131.51 103.552 131.577L103.542 131.583Z" fill="#112870"/>
<path d="M107.664 140.645L108.384 140.212C108.486 140.158 108.577 140.083 108.65 139.992C108.723 139.901 108.777 139.797 108.809 139.685C108.84 139.573 108.849 139.455 108.834 139.34C108.82 139.224 108.782 139.113 108.723 139.013C108.664 138.912 108.586 138.825 108.492 138.755C108.399 138.686 108.292 138.636 108.179 138.609C108.066 138.581 107.948 138.577 107.834 138.596C107.719 138.616 107.609 138.658 107.511 138.72L106.791 139.153C106.689 139.208 106.598 139.283 106.525 139.373C106.452 139.464 106.398 139.569 106.366 139.681C106.335 139.793 106.326 139.91 106.341 140.025C106.355 140.141 106.393 140.252 106.452 140.353C106.511 140.453 106.589 140.541 106.683 140.61C106.776 140.68 106.883 140.73 106.996 140.757C107.109 140.784 107.227 140.788 107.341 140.769C107.456 140.75 107.566 140.708 107.664 140.645Z" fill="#112870"/>
<path d="M114.758 147.004L115.478 146.428C115.64 146.266 115.731 146.046 115.731 145.817C115.731 145.588 115.64 145.368 115.477 145.206C115.315 145.045 115.096 144.954 114.867 144.954C114.64 144.965 114.424 145.055 114.255 145.207L113.536 145.781C113.415 145.902 113.333 146.056 113.299 146.224C113.266 146.392 113.283 146.566 113.348 146.724C113.414 146.882 113.525 147.017 113.667 147.112C113.809 147.207 113.976 147.258 114.147 147.258C114.374 147.245 114.589 147.156 114.758 147.004Z" fill="#112870"/>
<path d="M113.172 141.63C115.358 143.863 118.098 145.434 121.232 145.787C124.056 146.108 126.932 145.365 129.381 143.975C135.178 140.692 138.209 134.455 138.502 127.956C138.679 124.074 137.887 120.117 136.025 116.691C134.193 113.32 131.296 111.089 127.545 110.245C124.314 109.518 120.772 109.711 117.508 110.19C116.048 110.404 114.542 110.804 113.38 111.749C112.004 112.86 111.09 114.698 110.375 116.27C106.772 124.221 106.943 134.964 113.18 141.628C113.941 142.442 115.161 141.217 114.401 140.405C109.376 135.039 108.743 126.474 110.886 119.74C111.769 116.966 113.123 113.16 116.193 112.235C117.532 111.828 118.945 111.735 120.321 111.645C121.697 111.554 123.15 111.448 124.569 111.545C127.962 111.759 131.331 112.966 133.415 115.771C135.499 118.576 136.56 122.157 136.757 125.627C137.091 131.548 135.125 137.512 130.349 141.243C128.123 142.982 125.365 144.128 122.515 144.124C119.352 144.124 116.563 142.619 114.387 140.389C113.618 139.611 112.394 140.834 113.172 141.63Z" fill="#112870"/>
<path d="M111.124 106.237C111.079 106.894 111.138 107.554 111.299 108.193C111.564 109.272 113.231 108.816 112.966 107.735C112.846 107.245 112.808 106.739 112.852 106.237C112.887 105.771 112.429 105.372 111.989 105.372C111.761 105.377 111.543 105.469 111.382 105.631C111.221 105.792 111.128 106.009 111.124 106.237Z" fill="#112870"/>
<path d="M119.344 104.997L119.046 106.434C118.953 106.874 119.173 107.387 119.649 107.495C120.082 107.595 120.612 107.366 120.711 106.892L121.011 105.457C121.104 105.014 120.882 104.501 120.408 104.393C119.975 104.295 119.445 104.523 119.344 104.997Z" fill="#112870"/>
<path d="M124.365 108.114V108.401C124.365 108.631 124.456 108.851 124.618 109.013C124.78 109.175 125 109.266 125.23 109.266C125.458 109.262 125.675 109.169 125.836 109.008C125.997 108.847 126.089 108.629 126.093 108.401V108.114C126.093 108.001 126.071 107.889 126.028 107.784C125.984 107.679 125.921 107.583 125.841 107.503C125.761 107.423 125.665 107.359 125.56 107.315C125.456 107.272 125.343 107.25 125.23 107.25C125.002 107.254 124.784 107.346 124.623 107.507C124.461 107.669 124.369 107.886 124.365 108.114Z" fill="#112870"/>
<path d="M120.192 149.559C121.304 149.559 121.306 147.832 120.192 147.832C119.077 147.832 119.079 149.559 120.192 149.559Z" fill="#112870"/>
<path d="M115.847 115.437C112.886 120.174 111.745 125.826 112.635 131.341C113.058 134.005 113.919 136.951 115.672 139.055C116.614 140.185 117.835 141.103 119.002 142.003C120.123 142.866 121.33 143.69 122.678 144.166C124.86 144.919 127.86 144.708 129.916 143.676C130.911 143.177 130.036 141.685 129.045 142.184C126.796 143.313 123.738 143.012 121.642 141.752C120.134 140.833 118.74 139.739 117.489 138.493C116.309 137.331 115.645 135.837 115.13 134.29C114.155 131.317 113.849 128.165 114.232 125.06C114.615 121.955 115.679 118.972 117.347 116.325C117.937 115.382 116.449 114.515 115.855 115.452L115.847 115.437Z" fill="#112870"/>
<path d="M135.483 108.836C132.354 100.759 123.663 96.4872 115.283 97.2597C108.704 97.8671 103.149 101.641 99.4416 107.008C91.3251 118.755 91.0834 137.844 101.962 148.032C105.952 151.753 111.203 153.827 116.659 153.837C122.115 153.783 127.344 151.642 131.272 147.855C132.074 147.083 130.852 145.86 130.05 146.633C123.25 153.174 112.635 153.825 105.003 148.317C98.6632 143.737 95.634 135.601 95.3706 128C94.9774 116.549 100.452 102.39 112.702 99.424C120.891 97.4406 130.637 101.087 133.816 109.294C134.209 110.32 135.886 109.884 135.483 108.834V108.836Z" fill="#112870"/>
<path d="M85.4595 170.868C85.0712 173.213 84.5094 175.526 83.7788 177.787C83.4105 178.918 83.0004 180.032 82.5482 181.129C82.1178 182.177 81.6794 183.684 80.9147 184.528C80.1501 185.371 78.2591 185.19 77.1956 185.194C75.9218 185.194 74.6402 185.161 73.3723 185.141L65.5094 185.013C64.3968 184.993 64.3968 186.721 65.5094 186.741L74.3237 186.883C75.7194 186.906 77.1248 186.969 78.5205 186.883C79.6488 186.818 81.0111 186.778 81.8996 185.988C82.7881 185.198 83.1753 183.96 83.6294 182.935C84.1641 181.726 84.6555 180.498 85.0938 179.252C85.9945 176.671 86.6719 174.017 87.1185 171.32C87.3013 170.233 85.6364 169.765 85.4516 170.86L85.4595 170.868Z" fill="#112870"/>
<path d="M24.4653 173.215C26.5961 174.575 29.5762 174.347 31.9999 174.43C35.014 174.533 38.0281 174.524 41.0422 174.402C42.1901 174.355 43.5445 174.44 44.5962 173.889C45.5161 173.408 46.0213 172.543 46.3791 171.603C47.3934 168.934 48.1679 166.148 49.0505 163.433C49.3945 162.374 47.7276 161.92 47.3836 162.975C46.6078 165.364 45.8306 167.753 45.0522 170.14C44.7593 171.039 44.5156 172.138 43.5111 172.464C42.4182 172.818 41.0225 172.68 39.8883 172.716C37.3879 172.792 34.8862 172.792 32.3832 172.716C31.0996 172.676 29.8179 172.619 28.5363 172.535C27.406 172.46 26.3111 172.338 25.3361 171.723C24.3965 171.121 23.5277 172.617 24.4633 173.215H24.4653Z" fill="#112870"/>
<path d="M128.222 185.518C130.569 187.254 133.576 187.288 136.371 187.15C137.997 187.071 139.621 186.979 141.246 186.892C142.819 186.81 144.563 186.92 146.078 186.464C148.883 185.621 149.711 182.112 150.645 179.698C151.91 176.422 153.014 173.094 153.955 169.716C154.254 168.643 152.579 168.185 152.288 169.256C151.478 172.152 150.553 175.012 149.512 177.834C148.989 179.242 148.439 180.643 147.855 182.027C147.319 183.303 146.774 184.537 145.3 184.878C143.89 185.204 142.302 185.108 140.861 185.184C139.361 185.263 137.863 185.349 136.366 185.422C133.853 185.542 131.202 185.589 129.092 184.026C128.198 183.366 127.335 184.864 128.22 185.518H128.222Z" fill="#112870"/>
<path d="M125.008 137.5C125.008 137.5 124.709 130.671 133.264 130.816C140.089 130.932 152.65 139.2 156.29 128.9C159.931 118.599 142.923 115.336 135.339 117.422C127.756 119.507 119.515 119.297 117.97 112.812C116.425 106.327 130.266 106.129 131.461 103.18C132.615 100.013 138.994 96.7406 145.038 96.9175C147.749 93.8942 155.223 90.6272 166.138 97.5465C177.054 104.466 191.917 112.046 191.657 114.719C191.398 117.392 175.764 156.392 169.472 171.774C157.743 164.031 126.5 150.114 125.008 137.5Z" fill="#FC92C3"/>
<path d="M119.565 109.761C130.789 103.919 144.529 100.308 156.477 106.304C159.406 107.758 162.013 109.787 164.143 112.27C164.686 112.905 165.598 111.985 165.059 111.354C161.128 106.74 155.547 103.825 149.658 102.6C143.084 101.224 136.281 102.011 129.916 103.994C126.117 105.216 122.433 106.771 118.908 108.641C118.167 109.034 118.822 110.147 119.561 109.761H119.565Z" fill="#112870"/>
<path d="M145.184 97.3834C153.034 97.1533 160.667 99.9776 166.476 105.262C167.092 105.824 168.01 104.91 167.394 104.346C161.338 98.8228 153.375 95.8634 145.182 96.09C144.35 96.1156 144.346 97.4129 145.182 97.3874L145.184 97.3834Z" fill="#112870"/>
<path d="M130.075 136.55C131.903 135.662 133.36 137.877 134.109 139.196C134.917 140.619 135.41 142.508 134.028 143.757C133.409 144.317 134.327 145.231 134.944 144.673C136.873 142.931 136.25 140.222 135.056 138.253C133.863 136.283 131.882 134.237 129.423 135.438C128.672 135.801 129.328 136.92 130.075 136.556V136.55Z" fill="white"/>
<path d="M173.911 81.4709C173.985 85.5557 174.061 89.6417 174.137 93.7291C174.155 94.6609 174.172 95.5933 174.188 96.5263V97.2202C174.188 97.346 174.158 97.7175 174.221 97.2556L175.489 96.7386L175.882 97.2556C175.945 97.635 175.902 97.3991 175.902 97.23C175.902 97.0177 175.888 96.8035 175.882 96.5892C175.859 95.82 175.836 95.0507 175.813 94.2815C175.732 91.6605 175.648 89.0396 175.56 86.4186C175.324 79.5504 175.057 72.6802 174.652 65.8179C174.467 62.7101 174.272 59.5984 173.92 56.5044C173.877 56.1329 173.683 55.7653 173.286 55.6709C149.571 50.0863 125.057 51.2245 100.947 49.0779C94.9027 48.5393 88.8739 47.7884 82.9079 46.662C77.1779 45.5789 71.2611 44.3445 65.9438 41.8775C61.2005 39.6739 56.8936 36.2752 54.6468 31.4513C53.607 29.2262 53.0743 26.6825 53.3573 24.2273C53.7013 21.3102 55.323 19.1951 57.8057 17.7405C67.7385 11.8748 80.1048 11.5701 91.3074 11.2536C104.019 10.8946 116.731 11.1567 129.442 12.0399C141.856 12.897 154.334 14.2022 166.594 16.4117C171.689 17.3316 177.042 18.7351 180.832 22.4857C184.345 25.9631 186.059 30.9127 186.401 35.7681C186.794 41.4785 185.32 47.1024 183.376 52.4216C181.893 56.4768 180.034 60.3395 178.951 64.5284C176.934 72.2851 175.656 80.2816 174.607 88.2212C174.424 89.607 174.253 90.9928 174.119 92.3826C174.011 93.4873 175.741 93.4814 175.847 92.3826C176.602 84.5984 177.956 76.8023 179.625 69.1675C180.398 65.6292 181.29 62.1774 182.682 58.8357C185.041 53.1607 187.281 47.3677 187.989 41.219C188.579 36.1691 187.932 30.8931 185.66 26.3071C183.35 21.6444 179.346 18.458 174.518 16.6633C169.051 14.6229 163.011 14.0312 157.271 13.2233C150.831 12.3177 144.373 11.5695 137.897 10.9784C124.91 9.799 111.885 9.26826 98.8223 9.3862C92.5517 9.44124 86.2555 9.56115 80.0026 10.0821C74.1782 10.5656 68.3243 11.4758 62.8222 13.5122C60.2865 14.4518 57.6426 15.5507 55.4744 17.1921C54.4438 17.9674 53.5782 18.9404 52.9281 20.0542C52.2781 21.168 51.8566 22.4003 51.6884 23.6789C50.9434 28.7505 53.261 33.7729 56.6519 37.4389C60.4536 41.5473 65.6568 43.971 70.9288 45.5966C76.7493 47.3894 82.7998 48.5177 88.8168 49.4022C101.226 51.2304 113.781 51.7316 126.289 52.282C138.797 52.8324 151.407 53.4261 163.799 55.5235C166.83 56.0359 169.844 56.6439 172.841 57.3477L172.208 56.5142C172.916 62.7377 173.142 69.0279 173.417 75.2828C173.692 81.5377 173.903 87.7769 174.092 94.024C174.119 94.9125 174.146 95.7997 174.172 96.6855C174.188 97.1711 174.095 97.9986 174.63 98.2404C175.068 98.437 175.81 98.3308 175.898 97.7254C176.067 96.4791 175.898 95.1267 175.869 93.8765C175.792 89.7446 175.716 85.6127 175.64 81.4807C175.621 80.3701 173.893 80.3662 173.913 81.4807L173.911 81.4709Z" fill="#112870"/>
<path d="M82.6091 18.4777L83.1261 38.0385C83.1851 40.2578 86.6408 40.2657 86.5819 38.0385L86.0649 18.4777C86.0059 16.2584 82.5502 16.2506 82.6091 18.4777Z" fill="#A89FFF"/>
<path d="M74.0465 23.0775L91.6396 36.6291C92.3787 37.1992 93.5739 36.7431 93.9985 36.0099C94.5214 35.1175 94.1204 34.2172 93.3793 33.6511L75.7861 20.0994C75.0451 19.5294 73.8499 19.9854 73.4273 20.7186C72.9064 21.6111 73.3054 22.5114 74.0484 23.0775H74.0465Z" fill="#A89FFF"/>
<path d="M77.7479 35.0683C83.3438 31.5685 88.52 27.4384 93.1748 22.759C94.7474 21.1865 92.302 18.7352 90.7314 20.3156C86.2885 24.7895 81.3464 28.7383 76.0023 32.0844C74.1211 33.2638 75.8529 36.2517 77.7459 35.0683H77.7479Z" fill="#A89FFF"/>
<path d="M116.014 19.1913L116.531 38.7502C116.59 40.9695 120.046 40.9793 119.987 38.7502L119.47 19.1913C119.411 16.9721 115.956 16.9622 116.014 19.1913Z" fill="#A89FFF"/>
<path d="M107.452 23.7968L125.045 37.3485C125.784 37.9185 126.979 37.4605 127.404 36.7273C127.927 35.8368 127.526 34.9346 126.785 34.3684L109.191 20.805C108.45 20.235 107.255 20.691 106.833 21.4242C106.312 22.3166 106.711 23.2169 107.454 23.7831L107.452 23.7968Z" fill="#A89FFF"/>
<path d="M111.153 35.7878C116.753 32.2887 121.933 28.1586 126.592 23.4785C128.165 21.9059 125.719 19.4547 124.149 21.0351C119.706 25.509 114.764 29.4577 109.42 32.8039C107.538 33.9833 109.27 36.9712 111.163 35.7878H111.153Z" fill="#A89FFF"/>
<path d="M147.116 22.2126L147.633 41.7714C147.692 43.9927 151.148 44.0006 151.089 41.7714L150.574 22.2126C150.515 19.9933 147.059 19.9835 147.118 22.2126H147.116Z" fill="#A89FFF"/>
<path d="M138.551 26.8202L156.146 40.3738C156.886 40.9439 158.081 40.4878 158.505 39.7546C159.028 38.8622 158.627 37.9619 157.886 37.3958L140.293 23.8422C139.552 23.2721 138.357 23.7301 137.934 24.4633C137.413 25.3538 137.812 26.256 138.553 26.8222L138.551 26.8202Z" fill="#A89FFF"/>
<path d="M142.255 38.811C147.852 35.3119 153.029 31.1818 157.684 26.5017C159.256 24.9291 156.809 22.4779 155.238 24.0583C150.797 28.5332 145.855 32.482 140.511 35.8271C138.63 37.0065 140.362 39.9944 142.255 38.811Z" fill="#A89FFF"/>
<path d="M178.575 30.2858C182.159 36.2556 182.33 43.9278 178.986 50.0392C178.451 51.0221 179.943 51.889 180.478 50.912C184.115 44.2659 183.969 35.9136 180.067 29.413C179.497 28.4596 178.001 29.3285 178.575 30.2858Z" fill="#112870"/>
<path d="M11.5643 37.1659L18.2811 44.9461C19.0084 45.7894 20.2252 44.553 19.5018 43.7254L12.787 35.9451C12.0597 35.1019 10.8429 36.3285 11.5643 37.1659Z" fill="#112870"/>
<path d="M4.91428 59.689H10.6149C11.7275 59.689 11.7294 57.9612 10.6149 57.9612H4.91428C3.80169 57.9612 3.79972 59.689 4.91428 59.689Z" fill="#112870"/>
<path d="M6.06032 81.707C7.43072 80.1687 9.12523 78.9536 11.0218 78.149C12.04 77.7126 11.1613 76.2246 10.149 76.6571C8.1214 77.5296 6.30973 78.836 4.84158 80.4843C4.10247 81.3119 5.32121 82.5365 6.06425 81.707H6.06032Z" fill="#112870"/>
</svg>
