<svg width="197" height="197" viewBox="0 0 197 197" fill="none" xmlns="http://www.w3.org/2000/svg">
<path d="M18.7926 33.6055C15.8489 55.8347 15.4055 78.3237 17.4707 100.652C18.2839 109.32 18.5746 120.181 26.1255 125.991C32.9417 131.236 42.4509 130.741 50.5754 130.672L118.449 130.083L152.581 129.792C157.324 129.751 162.416 129.912 166.724 127.592C170.368 125.628 172.886 122.092 174.328 118.291C176.147 113.489 176.133 108.216 175.826 103.166C175.52 98.1158 175.137 93.1087 174.86 88.0741C174.29 77.6947 173.866 67.3093 173.277 56.9298C172.984 51.7715 172.65 46.6152 172.232 41.4647C172.065 39.3943 171.819 37.4064 171.035 35.4657C169.989 32.8624 168.277 30.5798 166.07 28.8467C163.864 27.1136 161.241 25.9909 158.464 25.5911C156.138 25.2512 153.749 25.1491 151.414 24.9644C139.659 24.036 127.892 23.3275 116.111 22.839C102.488 22.2497 88.8462 21.9256 75.208 22.073C63.3493 22.2006 51.4102 22.5778 39.6537 24.2219C35.4717 24.8112 31.2602 25.54 27.2412 26.862C24.7131 27.6909 21.8531 28.785 20.0695 30.8613C19.4133 31.5833 18.9783 32.4785 18.8162 33.4405C18.7062 34.2262 19.8966 34.5543 20.0066 33.7685C20.2914 31.7413 22.185 30.4292 23.9824 29.5079C27.0723 27.9227 30.5668 27.1016 33.9474 26.4239C44.4211 24.3221 55.2406 23.8192 65.8912 23.4971C79.113 23.0944 92.3525 23.2633 105.57 23.6817C117.866 24.0746 130.151 24.6934 142.425 25.538C147.226 25.8693 152.023 26.2412 156.818 26.6538C160.571 26.9838 164.037 28.3686 166.712 31.0794C168.051 32.433 169.115 34.0342 169.843 35.7937C170.641 37.7384 170.857 39.7401 171.022 41.8163C172.628 61.7994 173.12 81.8531 174.502 101.852C175.109 110.652 174.805 122.391 165.529 126.816C160.927 129.013 155.378 128.537 150.422 128.584L133.749 128.728L67.8378 129.29L51.3591 129.431C46.9158 129.468 42.4431 129.602 38.0233 129.052C33.9199 128.539 29.6828 127.37 26.4476 124.679C22.9629 121.778 21.252 117.555 20.3268 113.221C19.2857 108.342 18.9243 103.284 18.498 98.322C18.0318 92.9031 17.7155 87.4731 17.5492 82.0319C17.2213 71.1818 17.4875 60.3218 18.3467 49.5008C18.7684 44.1853 19.3289 38.8817 20.0282 33.5898C20.1303 32.8178 18.8948 32.8257 18.7926 33.6055Z" fill="#112870"/>
<path d="M20.5016 45.8826C39.8384 45.6941 59.1758 45.6476 78.5139 45.7432C97.852 45.8388 117.187 46.0784 136.52 46.4621C147.362 46.6769 158.203 46.9388 169.042 47.2478C169.827 47.2695 169.827 46.0339 169.042 46.0123C149.713 45.4701 130.381 45.0707 111.045 44.814C91.7096 44.5574 72.3735 44.4408 53.0367 44.4644C42.1923 44.4801 31.348 44.541 20.5036 44.6471C19.708 44.6471 19.7061 45.8905 20.5036 45.8826H20.5016Z" fill="#FF7348"/>
<path d="M27.585 34.1556V33.8394C27.5956 33.6067 27.5383 33.376 27.42 33.1754C27.3418 32.9585 27.2059 32.767 27.0271 32.6215C26.8545 32.4538 26.6434 32.331 26.4123 32.264C26.1824 32.1555 25.9295 32.1049 25.6756 32.1166C25.1788 32.1155 24.6986 32.2949 24.3242 32.6215C24.1541 32.7765 24.017 32.9643 23.9211 33.1735C23.8252 33.3828 23.7726 33.6093 23.7663 33.8394V34.1556C23.7545 34.3881 23.8111 34.619 23.9294 34.8196C24.0095 35.036 24.1449 35.2277 24.3222 35.3755C24.498 35.5436 24.7126 35.6657 24.9469 35.731C25.1769 35.8392 25.4295 35.8904 25.6835 35.8803C26.1802 35.8809 26.6603 35.7016 27.0349 35.3755C27.2055 35.2202 27.343 35.0322 27.4392 34.8226C27.5354 34.613 27.5883 34.3861 27.5948 34.1556H27.585Z" fill="#4081F4"/>
<path d="M34.4189 35.8803C36.8762 35.8803 36.8801 32.4309 34.4189 32.4309C31.9576 32.4309 31.9556 35.8803 34.4189 35.8803Z" fill="#4081F4"/>
<path d="M42.1131 35.8803C44.5724 35.8803 44.5763 32.4309 42.1131 32.4309C39.6498 32.4309 39.6518 35.8803 42.1131 35.8803Z" fill="#4081F4"/>
<path d="M145.739 37.4065H150.367C151.153 37.4065 151.153 36.1709 150.367 36.1709H145.739C144.953 36.1709 144.941 37.4065 145.739 37.4065Z" fill="#A89FFF"/>
<path d="M63.1235 76.581C63.3642 75.518 64.0158 74.5935 64.9359 74.0094C65.8561 73.4253 66.97 73.2291 68.0343 73.4636L87.0568 77.7262C88.0711 78.0136 88.9369 78.6785 89.4764 79.5844C90.0158 80.4902 90.1879 81.5682 89.9574 82.597C89.7268 83.6258 89.1111 84.5272 88.2367 85.1162C87.3623 85.7052 86.2955 85.9371 85.2555 85.7642L66.233 81.5016C65.1694 81.2592 64.2451 80.6054 63.6624 79.6833C63.0796 78.7611 62.8859 77.6456 63.1235 76.581Z" fill="#A89FFF"/>
<path d="M41.0308 67.6846C42.13 64.5594 44.4238 61.9978 47.4092 60.5617C50.3946 59.1255 53.8277 58.9321 56.9555 60.0238L65.8932 63.1667C67.4758 63.6819 68.9395 64.5082 70.1984 65.597C71.4573 66.6858 72.4859 68.0151 73.2238 69.507C73.9618 70.9988 74.3942 72.6231 74.4957 74.2844C74.5971 75.9457 74.3656 77.6105 73.8148 79.1811C73.2639 80.7517 72.4047 82.1963 71.2878 83.4302C70.1708 84.6642 68.8185 85.6625 67.3103 86.3665C65.8022 87.0705 64.1686 87.4661 62.5054 87.53C60.8422 87.5939 59.1831 87.3248 57.6253 86.7385L48.6857 83.6054C45.5626 82.505 43.003 80.2113 41.5681 77.227C40.1332 74.2426 39.94 70.8112 41.0308 67.6846ZM65.7812 76.363C66.1538 75.2978 66.0886 74.1284 65.5999 73.1112C65.1112 72.0941 64.2389 71.3123 63.1746 70.9375L54.2349 67.7946C53.1762 67.4466 52.0233 67.5276 51.0237 68.0203C50.0241 68.513 49.2576 69.3781 48.8888 70.4297C48.5199 71.4814 48.5783 72.6357 49.0512 73.6448C49.5241 74.6539 50.3739 75.4373 51.4181 75.8267L60.3577 78.9696C61.4219 79.3403 62.5896 79.2741 63.605 78.7856C64.6205 78.297 65.4009 77.4258 65.7753 76.363H65.7812Z" fill="#A89FFF"/>
<path d="M4.92458 66.2583C5.08244 62.9501 6.54586 59.8395 8.9939 57.6087C11.4419 55.3779 14.6748 54.2091 17.9834 54.3584L27.4455 54.8043C30.681 55.0569 33.6912 56.5586 35.8389 58.9915C37.9867 61.4243 39.1035 64.5975 38.9529 67.8393C38.8023 71.0811 37.3961 74.1371 35.032 76.3603C32.6679 78.5836 29.5315 79.7997 26.2866 79.7512L16.8244 79.3191C13.5159 79.1612 10.4049 77.6975 8.17411 75.2491C5.94327 72.8006 4.77465 69.5673 4.92458 66.2583ZM31.1168 67.4762C31.1681 66.3492 30.7702 65.2478 30.0105 64.4138C29.2508 63.5797 28.1913 63.081 27.0644 63.027L17.6023 62.587C16.4838 62.5502 15.3957 62.9554 14.5737 63.7149C13.7517 64.4743 13.2619 65.527 13.2102 66.6449C13.1586 67.7629 13.5493 68.8562 14.2977 69.6882C15.0462 70.5202 16.0923 71.024 17.2094 71.0905L26.6735 71.5305C27.7999 71.5802 28.9 71.1813 29.7328 70.4214C30.5657 69.6614 31.0634 68.6024 31.1168 67.4762Z" fill="#A89FFF"/>
<path d="M99.4772 105.339L91.3036 104.305C91.6022 101.948 92.0442 99.4338 92.5137 96.7742C93.3347 92.1089 94.1853 87.2826 94.2815 83.0632C94.366 79.0344 93.7237 76.2116 92.3683 74.6755C90.4649 72.5148 86.7327 72.6994 85.5069 72.7603C82.2363 72.9194 79.6002 74.2984 77.4532 76.9758C75.5144 79.3899 73.9901 82.8078 72.9215 87.1372C70.9788 94.9945 71.297 102.981 71.301 103.062L63.0724 103.427C63.0547 103.06 62.6933 94.3266 64.8835 85.33C66.231 79.7926 68.2798 75.2727 70.9729 71.8921C74.6383 67.2877 79.394 64.8205 85.116 64.5318C91.0326 64.243 95.5564 65.8223 98.5579 69.2285C104.531 76.0191 102.457 87.8051 100.624 98.216C100.18 100.77 99.7502 103.176 99.4772 105.339Z" fill="#112870"/>
<path d="M99.1982 148.617C96.3068 154.077 55.0364 150.172 52.5849 144.615C50.1334 139.058 53.2331 102.983 56.6589 97.2064C60.0847 91.4293 99.3397 95.2519 103.272 101.208C107.205 107.164 102.094 143.156 99.1982 148.617Z" fill="#F9CE46"/>
<path d="M81.9122 125.689C81.869 125.029 81.9456 122.46 81.8886 120.254C83.0843 119.606 84.0377 118.588 84.6056 117.352C85.1735 116.116 85.3253 114.73 85.0383 113.4C84.7513 112.071 84.0409 110.871 83.0137 109.979C81.9866 109.088 80.6981 108.554 79.3415 108.457C77.985 108.36 76.6337 108.706 75.4904 109.442C74.3471 110.179 73.4734 111.266 73.0005 112.541C72.5276 113.816 72.481 115.21 72.8677 116.514C73.2544 117.818 74.0535 118.961 75.1451 119.772C74.7345 121.737 74.4419 123.762 74.051 125.679C73.7897 126.966 71.46 133.774 72.2713 135.381C72.3091 135.471 72.3695 135.549 72.4467 135.608C72.5238 135.667 72.615 135.705 72.7113 135.719C75.3553 136.04 78.0091 136.257 80.6727 136.371C81.0773 136.387 81.5056 136.395 81.8513 136.175C82.5172 135.74 82.5408 134.725 82.4799 133.892C82.2893 131.154 82.087 128.423 81.9122 125.689Z" fill="#112870"/>
<path d="M180.718 138.795C180.718 138.795 162.532 106.227 150.561 99.8759C140.029 94.3915 133.499 91.614 129.936 97.7466C126.373 103.879 138.878 110.028 138.878 110.028C138.878 110.028 123.752 115.541 120.216 134.419C119.486 144.329 143.003 173.381 143.003 173.381L180.718 138.795Z" fill="#FC92C3"/>
<path d="M126.184 112.948C126.184 112.948 120.095 112.638 119.283 119.877C118.472 127.115 128.148 128.751 130.568 123.597C132.988 118.443 129.074 113.889 126.184 112.948Z" fill="#FC92C3"/>
<path d="M139.555 110.198C139.555 110.198 131.346 99.868 126.278 105.411C121.21 110.955 126.583 119.311 132.46 118.193C138.337 117.075 140.386 112.343 139.555 110.198Z" fill="#FC92C3"/>
<path d="M121.25 123.615C121.25 123.615 116.952 123.183 115.726 128.647C114.5 134.112 120.576 138.632 124.092 136.803C127.608 134.974 129.557 128.227 126.934 125.878C125.365 124.477 123.352 123.676 121.25 123.615Z" fill="#FC92C3"/>
<path d="M124.155 113.734C125.467 116.048 127.636 117.755 130.193 118.488C130.959 118.708 131.285 117.506 130.523 117.296C128.273 116.654 126.367 115.149 125.22 113.11C124.827 112.418 123.76 113.041 124.153 113.734H124.155Z" fill="#112870"/>
<path d="M119.499 123.841C121.566 127.096 127.007 128.911 129.91 125.744C130.449 125.155 129.576 124.283 129.038 124.87C126.695 127.424 122.218 125.823 120.566 123.218C120.14 122.548 119.071 123.167 119.498 123.841H119.499Z" fill="#112870"/>
<path d="M115.262 132.466C115.864 133.988 117.017 135.02 118.313 135.969C119.609 136.917 121.075 137.699 122.737 137.601C123.471 137.555 124.189 137.359 124.845 137.025C125.501 136.69 126.081 136.225 126.55 135.658C127.02 135.09 127.367 134.433 127.572 133.726C127.777 133.019 127.835 132.277 127.742 131.547C127.644 130.761 126.406 130.761 126.506 131.547C126.821 134.059 125.059 136.357 122.446 136.375C121.173 136.375 120.067 135.715 119.067 135C118.016 134.246 116.942 133.378 116.455 132.142C116.166 131.411 114.97 131.73 115.262 132.47V132.466Z" fill="#112870"/>
<path d="M125.247 123.22C125.419 122.809 125.708 122.458 126.078 122.21C126.449 121.963 126.884 121.83 127.329 121.829C128.115 121.829 128.115 120.588 127.329 120.594C126.616 120.602 125.921 120.825 125.337 121.236C124.753 121.646 124.306 122.223 124.057 122.892C123.766 123.632 124.96 123.953 125.247 123.22Z" fill="white"/>
<path d="M121.591 133.644C121.631 133.281 121.792 132.942 122.048 132.681C122.304 132.42 122.64 132.252 123.002 132.205C123.788 132.075 123.454 130.885 122.674 131.012C121.379 131.226 120.454 132.366 120.356 133.644C120.295 134.43 121.535 134.43 121.591 133.644Z" fill="white"/>
<path d="M129.954 112.99C130.062 112.377 130.338 111.807 130.753 111.344C131.287 110.754 130.417 109.882 129.881 110.471C129.312 111.083 128.925 111.842 128.763 112.662C128.616 113.447 129.806 113.771 129.954 112.99Z" fill="white"/>
<path d="M139.439 109.584C136.587 108.167 133.729 106.319 131.582 103.936C129.27 101.369 129.576 97.4441 132.474 95.4503C133.124 95.0024 132.507 93.9318 131.851 94.3836C128.944 96.3833 127.877 100.241 129.645 103.378C130.551 104.981 132.108 106.223 133.537 107.336C135.181 108.615 136.95 109.725 138.817 110.65C139.528 111.002 140.154 109.937 139.441 109.584H139.439Z" fill="#112870"/>
<path d="M97.5423 115.363L97.4913 131.077C97.4815 133.927 95.8039 136.228 93.7453 136.216H93.1265C91.066 136.202 89.4042 133.88 89.414 131.028L89.4651 115.314C89.4749 112.463 91.1524 110.161 93.211 110.175H93.8317C95.8903 110.198 97.5522 112.512 97.5423 115.363Z" fill="#75DDF9"/>
<path d="M113.432 115.502L113.394 126.542C113.394 129.415 111.695 131.735 109.619 131.723H108.928C106.851 131.712 105.176 129.366 105.195 126.496L105.233 115.455C105.242 112.581 106.932 110.261 109.008 110.275H109.7C111.77 110.291 113.442 112.632 113.432 115.502Z" fill="#75DDF9"/>
<path d="M113.426 117.138V117.58C113.412 121.356 111.19 124.402 108.464 124.387L95.1694 124.302C92.441 124.285 90.2409 121.208 90.2586 117.427V116.985C90.2704 113.21 92.492 110.163 95.2205 110.181L108.515 110.263C111.238 110.287 113.44 113.363 113.426 117.138Z" fill="#75DDF9"/>
<path d="M172.381 114.139C172.381 116.319 173.715 117.138 171.864 117.13L84.3755 117.052C82.5251 117.052 81.0361 115.268 81.0361 113.086C81.0361 110.904 82.5546 109.144 84.4049 109.157L171.336 109.354C173.194 109.362 172.391 111.966 172.381 114.139Z" fill="#75DDF9"/>
<path d="M88.4652 115.325C88.2373 119.603 88.3552 123.947 88.5438 128.225C88.6616 130.873 88.9661 134.118 91.064 136.008C92.936 137.701 95.1616 136.776 96.4207 134.874C98.4184 131.853 97.9411 127.871 97.562 124.463L96.9432 125.08L102.905 124.713C103.203 124.695 103.887 124.516 104.095 124.742C104.219 124.876 104.095 125.842 104.095 126.052C104.136 126.876 104.268 127.693 104.488 128.488C105.219 131.057 107.401 133.544 110.261 132.232C111.562 131.643 112.53 130.511 113.296 129.335C114.176 127.983 114.347 126.602 114.325 125.013C114.292 122.395 113.964 119.784 113.992 117.168C113.992 116.382 112.764 116.37 112.756 117.168C112.73 119.568 112.994 121.969 113.074 124.367C113.121 125.795 113.161 127.192 112.391 128.457C111.687 129.614 110.682 130.881 109.322 131.272C107.78 131.716 106.641 130.486 106.05 129.187C105.705 128.402 105.482 127.568 105.39 126.714C105.301 125.966 105.429 125.18 105.295 124.442C105.04 123.049 103.585 123.434 102.53 123.499L96.9412 123.843C96.6368 123.862 96.2851 124.112 96.3244 124.461C96.6898 127.73 97.3695 132.211 94.863 134.86C93.6844 136.11 92.2603 135.754 91.3036 134.411C90.2861 132.982 89.9895 131.114 89.85 129.409C89.6536 127.072 89.6674 124.711 89.6398 122.367C89.6123 120.024 89.5731 117.653 89.6988 115.313C89.74 114.528 88.5045 114.528 88.4632 115.313L88.4652 115.325Z" fill="#112870"/>
<path d="M150.734 124.819C150.734 124.819 141.871 106.142 134.446 110.198C127.021 114.255 133.493 130.431 134.142 132.466C132.446 134.085 125.043 145.586 130.036 155.02C135.029 164.455 143.001 173.389 143.001 173.389C143.001 173.389 175.677 146.108 180.718 138.795C174.385 127.345 167.327 117.178 150.734 124.819Z" fill="#FC92C3"/>
<path d="M129.645 142.195C130.451 140.154 131.424 138.183 132.554 136.302C133.059 135.464 133.593 134.644 134.159 133.843C134.658 133.136 135.141 132.572 134.868 131.668C134.576 130.72 134.094 129.806 133.745 128.875C133.34 127.793 132.959 126.697 132.657 125.585C132.002 123.381 131.661 121.095 131.643 118.796C131.659 115.166 133.48 108.307 138.518 110.742C140.39 111.648 141.767 113.451 143.107 114.987C144.641 116.743 146.122 118.549 147.532 120.405C148.229 121.269 148.881 122.169 149.485 123.1C149.866 123.729 150.218 124.542 150.883 124.931C152.225 125.717 154.05 124.575 155.142 123.821C155.792 123.373 155.175 122.301 154.519 122.754C153.921 123.202 153.259 123.558 152.555 123.811C152.07 123.96 151.712 124.029 151.316 123.68C150.98 123.381 150.791 122.858 150.559 122.477C149.491 120.709 148.108 119.089 146.827 117.486C145.387 115.695 143.9 113.931 142.333 112.247C141.023 110.841 139.492 109.497 137.544 109.122C133.468 108.348 131.228 112.477 130.669 115.907C129.96 120.228 130.92 124.632 132.389 128.689C132.617 129.319 132.859 129.942 133.11 130.562C133.307 131.069 133.851 131.92 133.654 132.47C133.493 132.92 132.998 133.385 132.723 133.788C132.4 134.263 132.086 134.746 131.782 135.236C130.482 137.343 129.372 139.562 128.467 141.867C128.174 142.606 129.368 142.928 129.657 142.195H129.645Z" fill="#112870"/>
<path d="M134.525 115.135C134.796 116.846 135.684 118.539 137.385 119.189C138.931 119.778 140.724 119.189 141.439 117.659C141.771 116.942 140.706 116.313 140.372 117.034C139.811 118.244 138.443 118.474 137.355 117.8C136.314 117.156 135.898 115.952 135.717 114.805C135.593 114.019 134.403 114.355 134.525 115.135Z" fill="white"/>
<path d="M191.468 110.198C191.72 112.954 191.01 115.712 189.459 118.003C187.908 120.295 185.612 121.979 182.961 122.77C182.771 124.631 182.148 126.421 181.141 127.998C180.134 129.574 178.772 130.893 177.163 131.847C175.555 132.802 173.745 133.366 171.879 133.495C170.013 133.624 168.142 133.313 166.418 132.588C164.694 131.863 163.163 130.744 161.95 129.321C160.736 127.897 159.873 126.209 159.43 124.392C158.987 122.575 158.976 120.679 159.398 118.857C159.82 117.035 160.663 115.337 161.86 113.899C162.184 113.51 162.532 113.141 162.901 112.795C162.475 112.521 162.066 112.221 161.677 111.896C160.24 110.696 159.105 109.177 158.362 107.459C157.618 105.742 157.289 103.874 157.398 102.005C157.508 100.137 158.055 98.3204 158.994 96.7017C159.933 95.0829 161.239 93.707 162.807 92.6846C164.374 91.6621 166.16 91.0216 168.02 90.8145C169.88 90.6074 171.763 90.8394 173.517 91.492C175.271 92.1445 176.848 93.1994 178.12 94.5719C179.392 95.9444 180.325 97.5962 180.843 99.3946C183.588 99.6955 186.144 100.935 188.08 102.904C190.016 104.872 191.213 107.449 191.468 110.198ZM177.661 118.37L180.195 118.132C182.011 117.967 183.687 117.087 184.855 115.686C186.022 114.285 186.585 112.478 186.42 110.662C186.255 108.846 185.375 107.17 183.974 106.002C182.573 104.835 180.766 104.272 178.95 104.437L176.414 104.657L176.2 102.088C176.075 100.735 175.553 99.4498 174.698 98.3939C173.844 97.338 172.696 96.5589 171.399 96.1547C170.102 95.7506 168.715 95.7397 167.412 96.1233C166.109 96.5069 164.949 97.2678 164.078 98.3101C163.207 99.3524 162.664 100.629 162.518 101.98C162.372 103.33 162.63 104.693 163.258 105.898C163.886 107.102 164.856 108.093 166.047 108.747C167.238 109.4 168.596 109.685 169.949 109.568L172.485 109.346L172.707 111.899V111.923L172.947 114.457L170.413 114.695C169.06 114.822 167.776 115.347 166.722 116.203C165.667 117.06 164.89 118.209 164.489 119.507C164.087 120.805 164.079 122.192 164.465 123.494C164.851 124.797 165.615 125.955 166.659 126.824C167.703 127.693 168.981 128.233 170.332 128.376C171.683 128.52 173.045 128.26 174.249 127.629C175.452 126.998 176.441 126.025 177.092 124.833C177.742 123.641 178.025 122.282 177.905 120.929V120.896L177.661 118.37Z" fill="#75DDF9"/>
<path d="M173.646 114.895C173.536 113.106 173.501 111.163 173.072 109.413C172.848 108.493 172.277 108.081 171.356 108.002C169.588 107.851 167.655 107.979 165.918 107.56C164.15 107.134 163.105 105.443 162.972 103.708C162.838 101.974 163.43 99.7344 164.651 98.4439C165.83 97.1887 168.087 96.5169 169.776 96.6524C173.679 96.9687 175.263 101.229 175.6 104.551C175.681 105.337 176.917 105.337 176.836 104.551C176.541 101.659 175.675 98.6914 173.3 96.8253C170.963 94.9906 167.967 95.1281 165.386 96.4147C162.77 97.719 161.499 101.068 161.75 103.879C162.009 106.755 164.013 108.664 166.834 108.927C167.816 109.018 168.798 109.071 169.768 109.142C170.183 109.171 171.312 109.041 171.676 109.297C172.175 109.65 172.094 111.261 172.157 111.817C172.269 112.842 172.353 113.868 172.414 114.897C172.463 115.683 173.699 115.693 173.65 114.897L173.646 114.895Z" fill="#112870"/>
<path d="M161.118 114.235C159.35 116.115 158.919 118.971 159.002 121.464C159.07 124.054 159.848 126.575 161.251 128.753C164.001 132.914 169.368 135.175 174.235 133.739C176.873 132.953 179.013 131.091 180.751 129.025C181.631 127.978 182.434 126.864 182.929 125.573C183.108 125.081 183.216 124.566 183.25 124.043C183.271 123.815 183.238 123.493 183.405 123.336C183.572 123.179 184.016 123.139 184.247 123.094C186.524 122.585 188.516 120.973 189.881 119.122C191.549 116.861 192.06 114.08 192.132 111.322C192.215 108.152 191.384 105.017 189.345 102.538C188.388 101.371 187.187 100.429 185.827 99.7777C184.467 99.1261 182.98 98.7808 181.472 98.7661C180.676 98.7661 180.674 99.9977 181.472 100.002C187.019 100.029 190.704 104.999 190.901 110.216C190.995 112.837 190.671 115.646 189.235 117.897C188.111 119.665 186.229 121.37 184.151 121.851C183.548 121.99 182.755 122.047 182.356 122.595C181.835 123.3 182.069 124.428 181.745 125.239C180.812 127.581 178.696 129.8 176.638 131.213C172.68 133.931 167.229 133.246 163.819 129.93C161.943 128.105 160.799 125.638 160.393 123.071C159.986 120.503 160.135 117.087 161.998 115.103C162.542 114.514 161.67 113.65 161.123 114.231L161.118 114.235Z" fill="#112870"/>
<path d="M115.294 86.216C114.292 83.0605 114.581 79.6362 116.099 76.6939C117.618 73.7515 120.24 71.531 123.393 70.5191L132.417 67.6355C133.98 67.1362 135.626 66.9497 137.261 67.0865C138.895 67.2233 140.487 67.6808 141.946 68.4328C143.404 69.1849 144.699 70.2168 145.759 71.4696C146.818 72.7224 147.62 74.1716 148.12 75.7344C148.619 77.2973 148.806 78.9431 148.669 80.5781C148.532 82.213 148.074 83.805 147.322 85.2631C146.57 86.7213 145.538 88.017 144.286 89.0764C143.033 90.1357 141.584 90.9379 140.021 91.4372L130.997 94.3189C127.84 95.3233 124.413 95.0343 121.469 93.5151C118.525 91.996 116.304 89.3709 115.294 86.216ZM140.272 78.235C139.926 77.1619 139.169 76.2698 138.166 75.7543C137.164 75.2388 135.997 75.1419 134.923 75.4849L125.899 78.3666C124.838 78.7215 123.959 79.4801 123.453 80.478C122.947 81.476 122.854 82.6332 123.195 83.6991C123.535 84.765 124.282 85.6539 125.273 86.1735C126.264 86.6931 127.42 86.8015 128.49 86.4753L137.514 83.5917C138.047 83.4212 138.541 83.1474 138.968 82.7859C139.395 82.4244 139.747 81.9823 140.003 81.4848C140.259 80.9874 140.415 80.4443 140.461 79.8867C140.507 79.3291 140.443 78.7678 140.272 78.235Z" fill="#A89FFF"/>
<path d="M150.577 74.6836C149.572 71.5273 149.861 68.1013 151.379 65.1574C152.898 62.2136 155.522 59.9922 158.676 58.9808L167.698 56.0992C169.266 55.5809 170.921 55.3785 172.567 55.5038C174.214 55.629 175.819 56.0794 177.29 56.8289C178.761 57.5783 180.069 58.612 181.139 59.8701C182.208 61.1283 183.017 62.5859 183.52 64.1587C184.022 65.7316 184.208 67.3884 184.066 69.0335C183.925 70.6786 183.458 72.2792 182.694 73.7429C181.93 75.2066 180.883 76.5043 179.614 77.5609C178.345 78.6175 176.88 79.4122 175.302 79.8989L166.28 82.7825C163.123 83.7866 159.698 83.4978 156.754 81.9795C153.81 80.4613 151.589 77.8375 150.577 74.6836ZM175.555 66.7026C175.209 65.6295 174.452 64.7374 173.449 64.2219C172.447 63.7064 171.28 63.6095 170.206 63.9525L161.182 66.8361C160.107 67.1797 159.213 67.9363 158.696 68.9394C158.178 69.9425 158.081 71.11 158.424 72.185C158.768 73.26 159.525 74.1545 160.528 74.6717C161.531 75.1889 162.698 75.2865 163.773 74.9429L172.795 72.0612C173.872 71.7161 174.767 70.9578 175.284 69.953C175.802 68.9483 175.899 67.7792 175.555 66.7026Z" fill="#A89FFF"/>
<path d="M78.2468 83.2637C78.4101 79.9555 79.879 76.8473 82.3312 74.6208C84.7834 72.3943 88.0187 71.2315 91.3272 71.3874L100.789 71.8451C102.437 71.9117 104.054 72.3036 105.549 72.9984C107.044 73.6931 108.387 74.6768 109.5 75.8929C110.613 77.109 111.475 78.5333 112.035 80.0839C112.595 81.6344 112.842 83.2804 112.763 84.9271C112.684 86.5738 112.28 88.1885 111.574 89.6783C110.868 91.168 109.874 92.5033 108.65 93.6072C107.425 94.711 105.994 95.5616 104.44 96.1099C102.885 96.6582 101.237 96.8933 99.5911 96.8018L90.1309 96.3461C86.8212 96.1843 83.7109 94.7158 81.4828 92.2631C79.2547 89.8103 78.0909 86.5737 78.2468 83.2637ZM104.437 84.5287C104.49 83.4017 104.095 82.2995 103.336 81.4639C102.578 80.6283 101.519 80.1276 100.393 80.0717L90.9304 79.616C90.3652 79.5767 89.7979 79.6508 89.2617 79.8336C88.7255 80.0165 88.2312 80.3046 87.8078 80.6809C87.3844 81.0573 87.0404 81.5144 86.7959 82.0255C86.5514 82.5365 86.4114 83.0913 86.3841 83.6571C86.3567 84.223 86.4427 84.7886 86.6368 85.3208C86.8308 85.8531 87.1292 86.3412 87.5144 86.7566C87.8996 87.1721 88.3639 87.5064 88.8799 87.7401C89.396 87.9738 89.9535 88.1021 90.5199 88.1175L99.984 88.5752C101.111 88.6276 102.212 88.231 103.047 87.4724C103.882 86.7139 104.382 85.6553 104.437 84.5287Z" fill="#A89FFF"/>
<path d="M100.18 84.5465C100.085 83.4598 100.425 82.3797 101.124 81.5425C101.824 80.7054 102.826 80.1794 103.913 80.0797L123.33 78.355C124.384 78.3205 125.41 78.6907 126.2 79.3896C126.989 80.0884 127.48 81.0629 127.574 82.1129C127.667 83.1629 127.355 84.2088 126.701 85.0358C126.047 85.8628 125.102 86.4082 124.059 86.56L104.641 88.2846C103.555 88.3779 102.475 88.037 101.639 87.3364C100.803 86.6359 100.279 85.6328 100.18 84.5465Z" fill="#A89FFF"/>
<path d="M25.7051 65.9405C25.887 64.8639 26.4882 63.9034 27.3771 63.2693C28.2659 62.6353 29.3699 62.3795 30.447 62.558L49.6738 65.7736C50.7 66.0066 51.5984 66.623 52.185 67.4966C52.7717 68.3702 53.0023 69.4351 52.8296 70.4731C52.6569 71.5112 52.094 72.444 51.2561 73.0807C50.4183 73.7174 49.3687 74.0098 48.3223 73.898L29.0936 70.6824C28.0159 70.5019 27.0539 69.9013 26.4186 69.0123C25.7834 68.1233 25.5268 67.0185 25.7051 65.9405Z" fill="#A89FFF"/>
<path d="M137.524 80.4234C137.116 79.4107 137.126 78.2776 137.552 77.2725C137.978 76.2673 138.785 75.472 139.797 75.0608L157.869 67.7456C158.376 67.5058 158.928 67.3721 159.489 67.3528C160.05 67.3334 160.609 67.4289 161.132 67.6332C161.655 67.8375 162.131 68.1464 162.53 68.541C162.929 68.9356 163.244 69.4075 163.455 69.928C163.665 70.4484 163.767 71.0064 163.755 71.5677C163.742 72.129 163.615 72.6818 163.382 73.1923C163.148 73.7028 162.812 74.1603 162.396 74.5366C161.979 74.9129 161.49 75.2002 160.958 75.381L142.887 82.6961C141.874 83.104 140.741 83.0938 139.736 82.6678C138.731 82.2418 137.935 81.4347 137.524 80.4234Z" fill="#A89FFF"/>
<path d="M55.2505 51.1843C62.1767 51.9465 69.2305 51.8031 76.2373 51.6813C93.7538 51.3801 111.274 51.2354 128.797 51.2472L128.962 55.3074C128.973 55.5824 128.962 55.8967 128.696 56.0932C128.456 56.2309 128.187 56.3103 127.911 56.325C121.837 57.1578 115.685 57.7 109.509 57.9298C94.3424 58.5054 79.1307 57.2639 63.9583 57.7432C60.9745 57.8375 57.8689 57.9848 55.1051 57.1853L54.9558 53.8637" fill="#E3E5E5"/>
<path d="M123.792 52.4473C123.553 52.4525 123.32 52.5196 123.116 52.642C122.911 52.7645 122.742 52.9381 122.624 53.1457C122.507 53.3533 122.446 53.5879 122.447 53.8264C122.447 54.0648 122.51 54.299 122.629 54.5059C122.758 54.7114 122.931 54.8855 123.136 55.0155C123.341 55.1455 123.572 55.2281 123.813 55.2572C124.054 55.2864 124.299 55.2614 124.529 55.1841C124.759 55.1068 124.969 54.9791 125.143 54.8104C125.858 54.0875 125.587 52.7616 124.534 52.5376C124.296 52.4942 124.051 52.5256 123.832 52.6275C123.613 52.7294 123.431 52.8968 123.311 53.1065C123.191 53.3163 123.139 53.5581 123.163 53.7985C123.186 54.039 123.284 54.2662 123.442 54.4489C123.648 54.7121 124.102 54.665 124.316 54.4489C124.577 54.1896 124.512 53.84 124.316 53.5748C124.047 53.2271 124.4 53.8164 124.404 53.7005C124.391 53.7152 124.375 53.7271 124.357 53.7355C124.339 53.7439 124.32 53.7487 124.3 53.7496C124.268 53.7339 124.268 53.7418 124.3 53.7732C124.305 53.8176 124.305 53.8624 124.3 53.9068C124.253 53.9714 124.183 54.0157 124.104 54.0305C123.788 54.1189 123.491 53.6848 123.786 53.6828C124.571 53.6828 124.583 52.4433 123.786 52.4473H123.792Z" fill="#112870"/>
<path d="M140.704 51.9661C143.568 51.6471 146.454 51.5643 149.332 51.7186C150.117 51.7619 150.117 50.5263 149.332 50.4831C146.454 50.3287 143.568 50.4115 140.704 50.7306C139.919 50.817 139.919 52.0526 140.704 51.9661Z" fill="#E3E5E5"/>
<path d="M142.03 55.7612L149.664 55.3074C150.449 55.2623 150.461 54.0247 149.664 54.0719L142.03 54.5256C141.245 54.5728 141.245 55.8083 142.03 55.7612Z" fill="#E3E5E5"/>
<path d="M143.199 60.3812L147.845 60.0512C148.63 59.9942 148.63 58.7587 147.845 58.8156L143.199 59.1456C142.413 59.2006 142.403 60.4362 143.199 60.3812Z" fill="#E3E5E5"/>
<path d="M24.4558 88.4494C25.0129 98.209 26.2932 107.914 28.2862 117.484L42.339 115.162C42.6564 115.141 42.9608 115.027 43.2151 114.836C43.4243 114.606 43.5609 114.319 43.6079 114.011C44.6942 109.53 44.2208 104.834 43.7022 100.261C43.1876 95.7102 42.6343 91.1641 42.0424 86.6226L26.0744 87.0469" fill="#E3E5E5"/>
<path d="M111.744 69.3406C113.695 68.8299 115.539 67.1543 115.781 65.0643C116.015 63.0332 113.412 62.4046 112.353 63.9957C111.383 65.4552 111.797 68.492 113.76 68.9301C114.864 69.1776 115.991 68.4901 116.885 67.9263C118.058 67.1802 119.121 66.273 120.042 65.2313C120.149 65.1136 120.207 64.9592 120.203 64.8001C120.199 64.641 120.134 64.4895 120.022 64.3769C119.909 64.2644 119.758 64.1995 119.599 64.1959C119.44 64.1922 119.285 64.2499 119.167 64.3571C117.812 65.4807 118.616 67.6238 120.232 67.9381C122.375 68.3526 123.587 66.2645 123.788 64.4534L122.858 64.9877C125.966 67.3449 129.773 65.1036 133.207 65.685C133.992 65.8166 134.318 64.6263 133.535 64.4927C130.301 63.9466 126.339 66.0897 123.481 63.9211C123.065 63.6048 122.597 64.0487 122.552 64.4534C122.45 65.3766 122.041 66.4884 121.018 66.7065C120.118 66.9029 119.187 65.9384 120.036 65.2313L119.162 64.3571C118.24 65.4063 117.165 66.3091 115.972 67.0345C115.363 67.3979 114.343 68.0992 113.658 67.5393C113.21 67.174 113.108 66.3843 113.1 65.8461C113.092 65.3079 113.278 64.2354 114.06 64.31C114.936 64.3945 114.41 65.5632 114.168 66.019C113.883 66.5454 113.491 67.0067 113.017 67.3736C112.544 67.7405 111.999 68.005 111.418 68.1502C110.65 68.3467 110.976 69.5429 111.748 69.3406H111.744Z" fill="#E3E5E5"/>
<path d="M108.66 101.881C111.834 102.133 115.02 102.202 118.201 102.088C118.987 102.058 118.999 100.823 118.201 100.852C115.02 100.969 111.834 100.904 108.66 100.656C107.875 100.595 107.875 101.834 108.66 101.891V101.881Z" fill="#E3E5E5"/>
<path d="M160.277 86.0647C157.213 86.3043 154.158 86.6317 151.113 87.0469C150.269 87.1628 148.756 87.0763 148.338 88.029C148.126 88.5201 148.338 89.0858 148.448 89.569L149.011 91.9262C149.038 92.0298 149.092 92.1243 149.168 92.2C149.244 92.2756 149.338 92.3297 149.442 92.3564C152.282 92.868 155.184 92.9389 158.045 92.5666C159.045 92.433 160.43 92.3702 161.131 91.5196C161.358 91.2434 161.476 90.8943 161.463 90.5375C161.453 90.0739 160.962 89.463 161.129 89.0367C161.416 88.2962 160.222 87.974 159.937 88.7087C159.693 89.3353 160.428 90.4294 160.027 90.8694C159.772 91.1464 158.969 91.1916 158.652 91.2446C158.024 91.3494 157.392 91.4293 156.757 91.4843C154.425 91.6838 152.077 91.5794 149.772 91.1739L150.204 91.606L149.811 89.9757C149.74 89.683 149.349 88.7676 149.615 88.5103C149.88 88.2529 151.268 88.2667 151.579 88.2274C152.145 88.1528 152.711 88.0807 153.278 88.0113C155.608 87.7259 157.943 87.4934 160.283 87.314C161.068 87.2531 161.068 86.0156 160.283 86.0784L160.277 86.0647Z" fill="#E3E5E5"/>
<path d="M150.491 96.5327L153.667 96.8136C154.453 96.8843 154.453 95.6487 153.667 95.578L150.491 95.2971C149.705 95.2264 149.705 96.4619 150.491 96.5327Z" fill="#E3E5E5"/>
<path d="M107.924 97.9922L116.239 98.2888C117.024 98.3183 117.024 97.0827 116.239 97.0532L107.924 96.7566C107.138 96.7272 107.138 97.9627 107.924 97.9922Z" fill="#E3E5E5"/>
<path d="M46.4444 91.4234C49.4321 90.7036 52.5003 90.3734 55.5726 90.4413C56.3584 90.459 56.3584 89.2234 55.5726 89.2057C52.3891 89.1417 49.2107 89.4896 46.1164 90.2409C45.3444 90.4275 45.6705 91.6159 46.4444 91.4313V91.4234Z" fill="#E3E5E5"/>
<path d="M46.8432 95.8137C47.8549 96.0753 48.9041 96.161 49.9448 96.0671C50.7306 95.9944 50.7306 94.7569 49.9448 94.8316C49.0151 94.9222 48.0767 94.8511 47.1712 94.6214C46.4012 94.4249 46.0712 95.6173 46.8432 95.8137Z" fill="#E3E5E5"/>
<path d="M47.4993 101.948H49.6973C50.4929 101.948 50.4949 100.713 49.6973 100.713H47.4973C46.7018 100.713 46.6998 101.948 47.4973 101.948H47.4993Z" fill="#E3E5E5"/>
<path d="M27.3964 93.0735C31.3368 98.3208 35.0867 103.704 38.646 109.222C39.0743 109.888 40.1448 109.269 39.7127 108.598C36.1546 103.083 32.4047 97.7008 28.463 92.4508C27.9916 91.8222 26.9171 92.437 27.3964 93.0735Z" fill="white"/>
<path d="M31.5981 108.391C33.4401 103.525 35.6227 98.7942 38.1294 94.2344C38.5223 93.5371 37.4478 92.9125 37.0628 93.6098C34.5071 98.265 32.2832 103.095 30.4077 108.063C30.1268 108.808 31.3191 109.13 31.5981 108.391Z" fill="white"/>
<path d="M101.815 88.7874C108.624 88.2505 115.418 87.5708 122.197 86.7484C124.289 86.4951 127.204 86.3988 128.249 84.1948C129.457 81.6412 127.249 79.3901 125.444 77.909C124.833 77.4101 123.955 78.2783 124.569 78.7831C125.473 79.5197 126.461 80.2898 126.989 81.3564C127.62 82.6253 127.351 84.0082 126.074 84.6957C125.139 85.1966 124.004 85.2949 122.97 85.4225C121.55 85.598 120.129 85.7669 118.708 85.9293C113.087 86.571 107.456 87.1132 101.815 87.5558C101.029 87.6167 101.029 88.8542 101.815 88.7913V88.7874Z" fill="#112870"/>
<path d="M138.575 75.5223C137.961 75.7496 137.435 76.1638 137.069 76.7066C136.704 77.2494 136.518 77.8933 136.538 78.5473C136.554 79.94 137.479 81.1344 138.669 81.7806C140.337 82.6862 142.26 82.533 144.052 82.1381C146.095 81.6673 148.107 81.067 150.074 80.3408C154.031 78.8992 157.907 77.2468 161.687 75.3907C163.131 74.6914 164.241 73.6365 164.035 71.902C163.848 70.3699 162.901 68.7591 161.715 67.777C160.084 66.4275 158.155 66.7143 156.301 67.4077C153.881 68.3152 151.483 69.2856 149.074 70.2225C148.342 70.5093 148.66 71.7036 149.402 71.4149L154.127 69.5743C155.539 69.0243 157.024 68.2484 158.54 68.0559C160.157 67.8595 161.322 68.8318 162.092 70.1558C162.445 70.7627 162.77 71.4444 162.815 72.1535C162.88 73.1572 162.253 73.7132 161.44 74.1433C158.69 75.5969 155.731 76.7991 152.85 77.9679C149.968 79.1366 146.971 80.2092 143.916 80.9144C142.223 81.3072 140.2 81.541 138.748 80.3604C137.646 79.4627 137.29 77.3216 138.913 76.7225C139.651 76.4494 139.333 75.2551 138.585 75.5321L138.575 75.5223Z" fill="#112870"/>
<path d="M74.055 83.5916C77.3359 84.8381 80.7484 85.706 84.2262 86.1786C86.4204 86.4674 89.2215 86.3927 90.4944 84.2398C91.8105 82.0182 91.0739 78.9794 88.811 77.7576C87.5852 77.0936 86.1689 76.8127 84.8371 76.4552L79.3135 74.9722C78.5454 74.7659 78.2174 75.9543 78.9854 76.1645C81.6235 76.8717 84.3146 77.4806 86.9173 78.3115C88.0508 78.673 89.2608 79.2249 89.6792 80.435C90.0976 81.645 89.9345 83.2479 89.0015 84.1573C87.4025 85.7151 84.3991 85.0158 82.4819 84.6641C79.721 84.1513 77.0108 83.3954 74.383 82.4052C73.6366 82.1262 73.3144 83.3205 74.055 83.5975V83.5916Z" fill="#112870"/>
<path d="M62.6914 75.7364C62.3496 78.0562 63.9014 80.3997 66.2821 80.7533C67.0679 80.8692 67.3959 79.6788 66.6102 79.5629C64.9641 79.3173 63.6303 77.7734 63.8837 76.0644C63.9976 75.2787 62.8073 74.9507 62.6914 75.7364Z" fill="#112870"/>
<path d="M27.473 62.7954C26.0607 63.2963 25.2494 64.5633 25.1375 66.0424C25.0117 67.7082 25.9055 69.1637 27.1843 70.1675C30.6847 72.894 35.9275 72.9018 40.137 73.334C42.6828 73.5959 45.2279 73.8578 47.7723 74.1197C49.5225 74.2965 51.5497 74.3869 52.746 72.8449C53.8342 71.4424 53.6947 69.4839 52.8501 68.0048C51.8679 66.2998 50.1511 65.2547 48.3066 64.7185C45.8964 64.0192 43.274 63.9426 40.7892 63.6794L32.046 62.7483C31.2602 62.6638 31.2602 63.9013 32.046 63.9838L43.8319 65.2371C46.9002 65.5651 51.862 66.1466 52.2785 70.1047C52.3708 70.9984 52.082 71.9924 51.3199 72.5267C50.6108 73.0177 49.6718 73.0197 48.8468 72.9785C46.9611 72.8822 45.0714 72.6072 43.1935 72.4147C39.367 72.0218 35.3794 71.8863 31.6531 70.8707C29.9166 70.3973 27.9209 69.6725 26.8936 68.0893C26.0607 66.8105 26.1491 64.581 27.803 63.9937C28.5475 63.7304 28.2254 62.5361 27.475 62.8033L27.473 62.7954Z" fill="#112870"/>
<path d="M40.0899 75.5381C40.9542 79.3469 44.0185 82.1225 47.4364 83.7372C51.644 85.7231 56.4036 86.611 60.8783 87.8033C61.6463 87.9997 61.9744 86.8211 61.2063 86.611C57.0518 85.5031 52.6615 84.6643 48.6995 82.9593C45.3012 81.4978 42.1347 78.9756 41.2822 75.21C41.1054 74.4341 39.9072 74.7622 40.0899 75.5381Z" fill="#112870"/>
<path d="M103.685 73.0728C106.773 74.2042 109.971 75.9348 111.122 79.229C111.383 79.9734 112.577 79.6533 112.312 78.899C111.002 75.1667 107.547 73.1769 104.013 71.8804C103.264 71.6074 102.942 72.7997 103.685 73.0728Z" fill="#112870"/>
<path d="M123.57 70.6135C127.832 70.5035 131.623 68.1522 135.847 67.9165C139.75 67.6985 143.543 69.4565 146.01 72.4639C146.515 73.0787 147.385 72.2007 146.884 71.5898C145.645 70.0913 144.1 68.876 142.351 68.0261C140.602 67.1762 138.692 66.7115 136.748 66.6633C132.169 66.5749 128.105 69.2601 123.57 69.378C122.784 69.3996 122.772 70.6351 123.57 70.6135Z" fill="#112870"/>
<path d="M174.85 56.4939C179.172 58.7725 182.707 62.764 183.136 67.8005C183.529 72.4756 180.806 77.1369 176.115 78.3077C175.343 78.5041 175.671 79.6925 176.443 79.5C181.515 78.233 184.678 73.2319 184.393 68.1305C184.081 62.5263 180.297 57.9671 175.473 55.4273C174.77 55.058 174.145 56.1226 174.85 56.4939Z" fill="#112870"/>
<path d="M4.29797 68.7629C4.42368 75.7481 11.232 79.4999 17.3391 80.4821C23.8685 81.533 32.0008 81.5173 36.6012 75.9641C37.1041 75.3572 36.2359 74.4771 35.7271 75.09C31.4842 80.2169 24.0473 80.2522 17.9991 79.3487C12.3753 78.504 5.65138 75.3316 5.53352 68.7629C5.51977 67.9674 4.28422 67.9654 4.29797 68.7629Z" fill="#112870"/>
<path d="M102.257 133.138C101.812 137.343 101.152 141.523 100.279 145.66C99.9054 147.428 99.6658 149.544 97.6032 150.029C95.7293 150.469 93.6039 150.357 91.6867 150.406C83.3774 150.613 75.0698 149.928 66.9068 148.361C64.7028 147.94 62.5113 147.452 60.3322 146.9C59.244 146.625 58.1597 146.334 57.0793 146.028C56.2032 145.778 54.6357 145.57 54.2409 144.6C53.9462 143.873 52.7499 144.191 53.0505 144.928C53.7183 146.574 55.5707 146.892 57.1107 147.32C59.337 147.942 61.5763 148.499 63.8287 148.99C68.2733 149.954 72.7699 150.661 77.2961 151.107C81.9535 151.568 86.6345 151.748 91.3135 151.646C93.3525 151.602 95.4857 151.646 97.5031 151.302C99.2886 151.001 100.398 149.927 100.943 148.218C101.703 145.839 102.043 143.244 102.453 140.787C102.877 138.246 103.224 135.693 103.492 133.126C103.577 132.34 102.339 132.34 102.257 133.126V133.138Z" fill="#112870"/>
<path d="M93.2542 100.332C96.1588 100.847 98.7514 102.466 100.489 104.85C100.952 105.488 102.023 104.871 101.555 104.227C99.6538 101.568 96.7962 99.7487 93.5823 99.1511C92.7965 99.0077 92.4724 100.2 93.2542 100.341V100.332Z" fill="#112870"/>
<path d="M95.6507 104.339C96.4364 104.339 96.4462 103.103 95.6507 103.103C94.8551 103.103 94.8532 104.339 95.6507 104.339Z" fill="#112870"/>
<path d="M81.2738 147.179C86.1512 148.041 91.105 148.393 96.0553 148.23C96.8411 148.204 96.8509 146.967 96.0553 146.994C91.2157 147.161 86.3718 146.824 81.6019 145.988C80.8161 145.851 80.49 147.041 81.2738 147.179Z" fill="#112870"/>
<path d="M73.4774 147.42C74.273 147.42 74.273 146.185 73.4774 146.185C72.6819 146.185 72.6799 147.42 73.4774 147.42Z" fill="#112870"/>
</svg>
